<svg xmlns="http://www.w3.org/2000/svg" style="display:block" viewBox="0 0 2048 2048" width="1024" height="1024"><path fill="#365B69" d="M990.976 215.944c445.864-18.253 822.064 328.471 840.174 774.341 18.11 445.865-328.73 821.965-774.61 839.925-445.67 17.96-821.553-328.69-839.655-774.36-18.101-445.666 328.431-821.66 774.091-839.906"/><path fill="#F0EFE0" d="M1010.7 339.557c84.39-4.756 181.06 14.448 259.35 45.248a700.6 700.6 0 0 1 341.34 289.93c15.02 24.83 28.85 49.7 40.36 76.376 19.13 44.314 36.91 99.365 45.94 146.617 22.09 115.612 12.8 247.222-30.72 356.882-72.69-15.13-144.56-14.81-217.6-1.74-137.45 24.59-261.04 106.85-348.01 214.48-16.57 20.5-30.32 43.48-45.37 65.11l-1.49.13-3.38-3.18a718 718 0 0 0-17.29-17.6 797.07 797.07 0 0 0-492.667-227.85 948 948 0 0 0-104.574-2.83c-15.41.37-30.747 1.87-46.169 2.01-6.164-9.96-9.557-22.56-13.451-33.59a650 650 0 0 1-36.852-197.5c-7.683-185.08 59.44-365.465 186.243-500.503a680.12 680.12 0 0 1 364.729-200.482c39.897-7.453 79.12-10.166 119.611-11.508"/><path fill="#365B69" d="M681.838 555.222c3.758-.423 7.698-.341 11.485-.482-13.392 43.948-3.615 74.518.967 117.704 2.1 19.784 1.835 39.214.749 59.024 80.675-26.743 116.461 37.661 180.072 40.493 12.361.55 23.479-2.035 35.338-5.271-12.263 18.056-28.486 37.014-46.379 49.552-42.369 29.689-100.317 30.6-149.015 20.142-27.228-5.847-56.777-16.779-84.765-10.565-24.719 5.489-40.186 22.034-53.193 42.821-28.117 44.935-52.243 120.475-39.578 173.28 6.906 28.8 25.751 51.7 50.858 66.97 56.598 34.43 124.348 17.99 180.895-7.09 116.113-51.49 214.249-139.599 306.388-225.38 33.91-31.569 66.43-64.665 102.72-93.58 54.79-43.664 114.02-85.179 183.21-101.647 61.08-14.542 117.02-8.992 176.73 6.949 21.46 5.73 42.69 11.869 61.71 23.732 13.18 8.216 24.32 18.628 27.61 34.48 8.66 41.776-27.45 111.152-49.77 146.169a678 678 0 0 1-90.98 114.307 507 507 0 0 1-30.86 28.87c-10.51 9.17-35.96 27.46-42.33 38.67-8.97 15.77-11.43 39.17-15.68 56.77a482 482 0 0 1-13.68 47.1c-16.69 47.95-43.59 96.61-91.06 119.59-1.67-13.51-4.26-26.9-5.74-40.45a390 390 0 0 1 1.15-96.67c-9.78 7.45-20.31 14.37-30.74 20.86-8.46 5.27-18.58 10.12-25.63 17.22-7.79 7.83-21.44 33.67-28.93 44.72a458.3 458.3 0 0 1-80.87 89.16c-15.68 13.22-94.51 66.72-113.24 63.41-2.75-.48-3.85-1.32-5.56-3.45-4.81-16.06 3.44-87.73 6.44-108.39a748 748 0 0 1-60.563 17.11c-28.599 6.58-57.349 10.2-86.593 12.23-83.619 5.83-150.557-5.75-228.279-36.72-26.031-10.38-51.514-21.38-75.326-36.3-55.883-35.03-100.524-83.39-115.385-149.43-16.746-74.42 11.356-159.103 57.191-218.049 24.319-31.275 55.37-62.7 69.205-100.421 21.32-58.127-3.285-105.749 33.585-163.211 16.959-26.43 47.187-47.476 77.843-54.227"/><path fill="#F0EFE0" d="M1516.16 715.378c-.16-8.72-1.27-17.149-2.48-25.765 2.25-.474 2.51-.219 4.66.706 5.24 6.355 4.5 18.184 4.7 26.136 26.44 5.709 56.62 10.361 76.76 30.175 4.71.57 12.78.503 16.56 3.171l.28 1.846-1.6 1.869c-11.69.482-23.53-1.195-35.31-.995a733 733 0 0 0-111.38 9.682c-3.64.588-31.13 6.467-32.69 6.042-.57-.155-.96-.688-1.44-1.032-.34-2.787-.78-3.915.42-6.507 8.14-3.751 18.47-4.319 27.28-5.599 43.42-6.303 86.66-8.691 130.54-8.462-51.46-33.348-153.26-32.614-212.5-20.101-44.9 9.483-84.87 30.723-122.83 55.814 12.23 7.123 26.61 24 34.56 35.678a744 744 0 0 0-47.61 42.513c11.12 14.619 20.97 30.937 33.16 44.578 11.17-13.21 62.57-79.403 70.63-83.734.98-.528 2.16-.56 3.24-.84l1.5 1.689c-2.31 9.699-30.3 37.869-38.58 48.32-21.69 27.358-42.2 56.747-65.66 82.561-12.06 13.263-25.62 25.447-38.98 37.369-11.75 10.478-24.64 19.818-37 29.558q-24 19.08-47.7 38.52c-9.63 7.85-20.41 15.49-28.92 24.52-20.26 21.52-42.8 98.74-49.98 128.98-4.94 20.78-8.59 42.04-11.93 63.14 60.14-16.98 60.58-19.62 100.16-67.07-19.9-21.1-31.13-63.33-30.4-91.95.18-6.94 1.04-13.83 1.78-20.73 10.09-14.57 59.34-49.62 76.17-63.32 22.91-18.64 44.94-38.393 67.95-56.906 4.25 13.713 7.81 27.366 9.03 41.716 4.83 57.2-15.01 129.03-41.63 179.77a414.14 414.14 0 0 1-149.22 158.66c-15.5 9.52-31.83 17.54-48.17 25.48 2.52-101.44 13.99-193.54 60.06-285.44-14.76 8.62-27.6 20.3-42.34 28.79-9.3-11.83-18.81-23.51-29.42-34.21-30.527 20.54-61.963 35.65-96.051 49.25 4.664 19.02 11.156 37.7 17.06 56.37 44.593-16.99 82.831-43.25 121.881-70.07-6.58 17.76-11.82 36.33-19 53.8-18.98 12.82-38.251 25.11-59.123 34.69-75.628 34.73-162.118 47.02-244.714 42.68-18.968-1-38.193-2.3-56.865-5.92-38.498-7.45-161.854-59.73-184.329-91.1-2.3-3.21-4.133-6.9-5.942-10.4 5.521 1.58 10.844 2.86 16.527 3.72a3314 3314 0 0 1 26.916-43.41c-15.461-14.46-31.664-28.76-45.457-44.85-5.841 3.43-23.601 15.6-29.456 15.48-1.336-2.32-1.159-3.6-1.011-6.17 4.028-5.38 20.386-11.2 26.901-15.07-14.04-34.99-16.716-67.494-1.768-102.762 13.102-30.916 30.846-59.02 47.974-87.762 6.987 4.691 14.235 9.205 20.88 14.367 7.952-14.301 17.257-26.688 27.607-39.279-6.805-3.649-19.266-8.511-23.246-15.165.575-2.276.976-2.383 2.81-3.911 9.262 1.844 17.254 8.66 25.947 12.197l8.356-6.495c14.877-17.73 39.399-27.346 61.494-31.754 14.971-23.715 47.936-53.011 76.034-59.478 43.772-10.075 79.028 21.665 117.224 36.081 12.975 4.897 27.115 6.52 40.787 8.323-27.099 26.22-55.206 41.392-93.775 40.765-55.659-.905-116.393-34.572-170.552-9.657-10.453 4.809-18.944 11.751-27.597 19.211-2.522 2.175-5.855 6.037-8.714 7.528-6.95 10.692-15.274 20.361-22.038 31.306-22.62 36.605-32.644 77.162-39.017 119.21-14.734-4.673-29.69-8.727-44.552-12.973-6.094 29.888-2.036 59.128 12.934 85.688 15.396-2.5 32.508-9.19 48.063-8.89 2.674.05 3.389.23 5.198 2.18.105 2.43-.183 2.7-1.46 4.8-5.902 3.91-37.036 6.32-45.622 6.73 30.287 29.65 56.416 55.31 95.756 73.5 3.271-9.94 6.44-17.7 12.909-25.99-.276 10.02-3.195 19.65-5.768 29.27 24.673 11.67 50.292 17.83 76.764 23.74l-1.849-32.97c36.022.23 61.444-3.74 95.774-14.14 2.896 9.95 4.416 20.48 6.381 30.65 28.62 2.24 60.359-5.75 88.306-11.56-2.928-11.81-19.496-68.13-17.67-73.87 1.602-.91 3.13-2.38 4.953-1.93 3.883 7.53 5.493 16.9 8.318 24.98 56.674-20.68 101.224-55.65 148.772-91.552-5.707-7.427-23.095-22.595-23.042-31.642l1.601-1.362c5.98.945 21.451 22.014 26.691 27.384l.9.9c26.97-28.162 57.78-54.618 87.62-79.729-4.71-7.974-10.65-15.033-16.06-22.525-2.75-3.823-6.35-8.042-5.57-12.941l2.34-1.048c6.6 2.184 24.83 28.963 30.02 35.916 33.14-26.808 57.77-54.224 85.6-86.266-6.61-9.238-19.67-18.949-23.89-29.073-.87-2.089-.56-1.758.27-3.593l2.24-.469c10.31 3.727 20.06 18.588 27.01 27.054 28.04-29.398 58.31-51.426 93.87-71.006-5.15-8.023-15.6-20.138-16.07-29.776 1.33-2.704 1.52-2.686 4.25-4.018 6.21 4.385 13.78 22.992 17.93 30.235a308.9 308.9 0 0 1 105.82-32.752c3.37-.375 3.37-.137 5.52-2.708.55.388 1.02.917 1.64 1.163 1.82.719 31.75-2.073 37.15-2.132 21.75-.239 44.11.494 65.54 4.378"/><path fill="#365B69" d="M530.389 1114.51c25.949 21.15 54.195 37.26 85.798 48.34-3.437 8.18-14.939 27.04-14.382 34.92 1.989 1.03 2.258 1.1 4.485.9 7.985-7.58 12.678-23.62 17.052-33.69 16.376 4.61 32.532 8.5 49.311 11.36.601 6.66 1.476 13.2 2.508 19.8 33.027 6.23 65.33 7.5 98.805 4.83.602 2.69 1.234 5.38 1.896 8.06.849 3.37 1.51 5.79 4.588 7.63 2.41-5.44-6.279-45.54-7.815-54.33 11.154-2.01 22.896-2.49 34.18-3.87 32.108-3.93 65.148-8.34 96.274-17.24 5.055 4.01 15.663 49.8 17.925 57.83-11.578 4.46-23.55 8.1-35.451 11.6-67.487 19.82-145.511 28.72-214.792 12.97-25.184-5.72-49.142-15.19-73.121-24.59a810 810 0 0 1-93.882-43.45c8.266-14.04 17.584-27.51 26.621-41.07m197.746-370.296c39.537-3.67 71.179 22.365 105.81 36.716 9.781 4.054 19.569 6.301 29.925 8.348-18.357 17.724-46.955 26.911-72.022 27.787-46.441.674-91.066-18.226-137.691-19.344 18.973-23.51 43.814-46.451 73.978-53.507m470.795 384.246c11.22 2.15 22.7 6.16 33.78 9.14-18.77 61.33-56.48 117.99-104.38 160.45-3.7 3.07-7.45 6.09-11.25 9.04-4.76-16.6-11.63-32.67-16.63-49.27 8.56-8.19 16.2-17.46 24.02-26.35 28.33-32.23 53.26-65.6 74.46-103.01m-22.18-83.28c6.18 8.43 13.58 64.44 15.86 77.97-15.25 28.93-34.28 55.16-54.52 80.75l-4.07-6.44c-18.13-34.14-25.24-57.28-22.59-95.98 13.5-16.41 47.18-41.84 65.32-56.3m68.32-56.265c.37.36.83.656 1.13 1.081 3.55 5.016 4.2 17.414 4.61 23.544 2.89 42.68-4.19 75.62-15.81 116.02-10.52-4.48-22.63-6.98-33.54-10.66-3.24-4.31-15.58-68.76-17.06-78.53 20.12-16.99 39.61-35.74 60.67-51.455m-7.24-122.3c5.05 1.922 29.06 37.451 34.22 44.662-18.43 28.759-44.35 52.572-69.08 75.754a786 786 0 0 0-35.17-50.018c21.95-24.477 46.71-47.17 70.03-70.398m-136.15 55.187c6.33 3.299 26.36 32.725 31.57 39.61-15.22 14.837-29.85 29.923-44.07 45.728-10.64 11.83-21.21 25.2-33.03 35.76-10.8-15.46-25.34-32.63-32.83-49.805 25.25-24.493 51.22-48.913 78.36-71.293m-86.97 75.486c6.82 6.522 12.15 16.312 17.56 24.102 6.21 9.09 12.78 17.94 19.68 26.51-21.94 20.79-49.01 39.62-75.47 54.07-1.412.57-2.22.57-3.719.6-9.783-7.84-24.363-36.18-31.49-47.92 19.086-13.24 59.459-40.13 73.439-57.362m77.85 264.722 1.2.16c4.18 4.39 12 40.1 18.52 50.25-21.44 18.47-44.55 33.67-69.21 47.46l-15.6 8.56c.21-27.51 1.21-56.52 5.89-83.66 19.72-7.17 40.34-13.61 59.2-22.77m72.88-322.214c3.02 13.542 23.74 39.044 32.24 51.763-22.41 18.871-46.6 35.561-68.92 54.691l-1.47.69c-5.78-3.54-23.64-31.01-29.38-38.97 21.76-23.477 43.73-46.732 67.53-68.174"/><path fill="#365B69" d="M935.597 1058.8c4.908 4.93 23.917 38.55 30.218 47.91a277.9 277.9 0 0 1-81.374 32.07l-15.463 2.16a1560 1560 0 0 1-10.919-42.41c27.833-10.96 52.786-22.95 77.538-39.73m-178.467 74.37c1.798-.19 1.677.08 3.107 1.01 5.518 13.45 9.588 44.46 11.056 59.68-25.322 3.79-52.88.64-78.2-2.17-4.259-.59-8.487-1.35-12.722-2.09-2.942-14.61-3.053-30.76-4.248-45.67 28.437.23 53.583-3.44 81.007-10.76m495.23-347.308c8.95 5.798 22.51 22.796 29.16 31.732-26.37 22.14-49.3 47.095-74.66 70.204-5.77-2.563-23.86-23.493-29.64-29.285 22.93-27.067 46.61-51.458 75.14-72.651m-160.42 227.948c11.02 10.61 20.4 25.8 29.61 38.15-25.44 21.58-52.04 40.79-78.98 60.41-.89.57-1.98.86-2.96 1.23-7.79-3.99-19.03-20.16-24.9-27.19 29.29-20.83 53.55-45.76 77.23-72.6m80.79-150.15c10.03 7.367 19.16 20.176 27.45 29.549-19.54 20.887-40.45 40.788-60.73 60.983l-.56.194c-5.84-3.125-21.68-26.91-26.87-34.059 21.57-17.09 41.83-36.671 60.71-56.667m-649.494 14.869c5.246 3.566 10.456 6.953 15.999 10.044-13.664 30.727-22.131 59.866-26.691 93.297-5.947-1.616-11.96-3.032-17.942-4.518l-19.807-5.136c11.669-33.142 29.576-64.189 48.441-93.687"/><path fill="#F0EFE0" d="M1571.06 766.552c8.92-.571 17.88-.403 26.77.502-22.47 59.734-53.73 118.028-95.07 166.856-5.08 6.002-28.65 30.986-30.44 36.71 7.07-3.696 15.91-15.771 21.41-21.906a537.1 537.1 0 0 0 107.86-181.087l14.91.665c-8.81 85.884-98.9 193.689-160.2 250.878-45.46 41.82-95.39 76.69-145.76 112.15-20.91 14.71-47.53 35.35-70.53 45.62 7.2-17.81 13.56-35.77 19.57-54.02 81.42-59.91 174.47-140.48 234.01-222.562 21.66-29.855 43.37-60.532 60.01-93.524 3.34-6.61 14.21-37.632 17.46-40.282m-47.13 3.891c.92.426.44.062 1.04 1.502-10.44 15.221-19.21 31.452-29.29 46.893-16.04 24.575-34.02 48.479-52.25 71.468-50.03 63.078-113.19 119.224-171.9 174.284 2.33-23.29 2.53-45.33 1.02-68.669 9.41-12.232 28.01-28.164 39.42-40.667 41.4-45.38 82.49-93.269 111.96-147.464l5.51-10.689c16.94-7.673 34.85-12.96 52.55-18.554a1466 1466 0 0 1-126.24 167.895 805 805 0 0 1-33.72 36.096c-7.74 7.642-18.69 15.295-24.8 24.122l1.2-.09c55.33-45.623 105.89-110.729 147.59-168.812a797 797 0 0 0 23.14-33.793c5.57-8.532 10.73-17.662 17.35-25.418.28-.331.57-.654.86-.981 11.81-3.783 24.31-5.408 36.56-7.123"/><path fill="#F0EFE0" d="M1550.3 767.416c5.07-.6 10.46-.394 15.58-.522-12.99 35.633-31.58 67.628-52.6 99.046-66.82 99.878-150.18 172.04-243.52 246.2l-9.19 7.01c4.15-16.29 6.65-33.16 10.06-49.64 63.26-59.37 127.63-116.897 181.79-185.159 28.97-36.512 53.6-75.31 77.72-115.102zM504.857 1180.89c21.446 11.27 42.123 23.57 63.901 34.34 22.244 11 45.331 20.3 68.038 30.3 15.876 6.99 31.209 14.95 47.766 20.3 86.531 27.96 171.067 25.57 257.921 1.15 25.016-7.03 50.842-15.27 73.997-27.15-1.1 5.07-1.73 10.22-2.45 15.35l-2.16 14.81c-60.334 28.74-164.011 39.07-230.076 32.68-86.31-8.36-220.38-53.13-276.937-121.78"/><path fill="#F0EFE0" d="M1028.94 1186.42c.75 6.6-9.06 41.31-11.56 49.82-1.49.79-2.99 1.56-4.51 2.31-21.118 10.43-44.925 17.49-67.503 24.03-93.249 27.02-180.049 28.3-272.615-3.2-7.185-2.66-13.877-6.16-20.681-9.66 104.09 24.47 224.879 11.06 322.213-32.84 19.013-8.57 36.536-20.17 54.656-30.46M675.13 566.867l1.265.647c1.192 3.609-.554 55.556-1.302 62.279-4.739 42.579-38.661 70.187-70.152 95.202q.078 4.631-.002 9.262c-.497 25.538-6.48 75.644-25.548 94.031l-1.146.029c-.639-4.34 7.723-21.2 9.408-26.575a192 192 0 0 0 6.156-26.387c7.866-47.654-3.321-99.789 14.895-145.457 12.057-30.231 37.098-50.447 66.426-63.031"/><path fill="#365B69" d="M667.687 577.962c.107.098.233.178.32.294 2.581 3.443 1.003 42.697.312 48.847-4.594 40.891-32.729 62.959-62.918 87.069l-1.164-1.661c-1.879-24.792.897-54.336 9.59-77.622 9.577-25.65 29.031-45.628 53.86-56.927"/><path fill="#F0EFE0" d="M1385.33 759.281c4.48-.156 8.65.586 12.78 2.404 5.13 2.26 9.06 5.336 10.92 10.802 2.72 7.978.34 17.286-3.6 24.426-7.85 14.237-20.19 21.278-35.28 25.479-6.55.747-13.23.282-18.84-3.606-3.77-2.614-5.93-6.641-6.68-11.116-1.71-10.257 2.9-21.373 9.02-29.396 8.1-10.617 18.34-17.279 31.68-18.993"/><path fill="#365B69" d="M1379.13 768.091c2.83-.051 5.53-.037 8.21.99a13 13 0 0 1 7.52 7.688c1.42 3.959.77 8.413-1.26 12.041-2.85 5.09-7.04 6.79-12.44 8.19-2.74-.247-5.87-.326-8.49-1.209-2.77-.937-5.38-3.61-6.6-6.248-1.4-3.038-1.31-6.592-.11-9.68 2.43-6.312 7.25-9.199 13.17-11.772"/><path fill="#F0EFE0" d="M1406.31 714.677c-3.66-8.075-12.85-24.173-10.28-32.692l1.63-.028c7.33 7.467 10.57 20.306 14.17 30.012-2.15 2.571-2.15 2.333-5.52 2.708"/><path fill="#C15549" d="M996.217 371.696c13.813 1.401 44.733 20.716 57.123 28.874 42.32 27.868 81.23 73.569 91.57 124.281 7.77 38.077.12 74.062-21.28 106.078 9.04 7.611 29.78 24.835 31.67 36.597.82 5.135-1.28 9.762-4.49 13.664-3.53 4.275-9.87 10.162-15.85 10.149-9.38-.02-34.34-26.917-41.61-34.506-9.51 5.154-18.7 8.314-29.36 10.256-42.07 7.66-82.462-11.111-116.144-34.563-10.369 16.714-24.934 34.198-39.863 46.875-7.174 6.092-21.486 16.674-31.295 14.828-3.248-.611-6.051-2.984-7.352-5.995-1.505-3.478-.602-7.425.779-10.772 9.701-23.505 49.994-59.234 73.439-69.341 5.249-2.263 16.318-7.059 21.586-4.402 1.341.677 1.316 1.891 1.76 3.21-.469 3.896-2.685 6.601-4.838 9.767 16.46 8.62 36.256 15.826 55.178 13.501 16.68-.397 32.86-5.203 48.05-11.816-9.29-11.416-21.42-21.457-32-31.727l-60.429-58.88c-13.527 14.7-27.16 29.37-42.36 42.382-.448-6.835-.976-13.622-1.79-20.425-8.226-3.686-17.245-6.199-25.791-9.094 13.885-18.739 39.983-47.133 57.101-63.344 3.963-3.753 8.276-7.431 13.329-9.608 13.18-5.677 49.65-12.458 63.49-12.052l1.01 1.373c-1.98 6.876-35.41 41.964-42.528 49.326a4477 4477 0 0 0 93.378 91.365c1.82-2.004 3.53-4.058 5.07-6.298 14.49-21.143 16.46-52.518 11.33-76.908-11.49-54.713-63.19-112.557-108.883-142.795"/><path fill="#BAD3CF" d="M437.798 1292.44c18.471-1.13 37.222-.37 55.703.22a818.3 818.3 0 0 1 289.563 63.56 766.45 766.45 0 0 1 332.586 271.48c14.27 20.63 31.72 43.03 41.31 66.34-16.85 4.88-34.4 6.93-51.72 9.49-15.2 3.85-39.99 5.86-55.31 4.58-36.64-55.04-74.89-103.23-124.593-147.36-15.578-13.83-31.369-27.69-48.065-40.17a644.9 644.9 0 0 0-371.271-129.44c-19.54-.4-39.12 1.02-58.617 2.17-19.433-27.05-42.318-67.96-53.123-99.11zm1102.742-38.01a460.8 460.8 0 0 1 122.39 11.08c-9.88 29.58-23.6 61.17-39.92 87.76-16.79-.89-33.52-3.08-50.35-3.91-42.08-2.2-84.27 1.51-125.32 11.02-124.06 29.08-230.58 112.02-297.24 219.45-8.29 14.21-16.49 28.46-24.59 42.77-20.06-27.75-40.14-54.4-62.98-79.99 10.06-12.34 17.81-27.28 26.95-40.42a632 632 0 0 1 52.6-64.6c102.56-112.46 246.32-178.55 398.46-183.16"/><path fill="#C15549" d="M473.653 1401.43c32.409-3.97 95.26 4.12 128.035 10.06a658.1 658.1 0 0 1 381.498 223.55c19.784 23.26 36.794 48.59 54.164 73.66l-18.99-.32c-16.66-.09-33.294-.21-49.889-1.71-20.215-1.82-40.336-5.34-60.465-7.98-12.952-14.33-23.964-29.9-37.749-43.62-66.827-66.51-155.098-117.51-247.208-138.76a363 363 0 0 0-44.426-7.3c-13.599-1.39-27.904-1.78-41.163-5.18l-1.321-.36c-30.34-29.2-62.04-63.01-83.092-99.69 6.81-1.22 13.722-1.72 20.606-2.35m1064.527-41.97c25.72-1.12 53.56.07 78.86 4.76-18.61 27.32-33.81 57.07-55.75 82.01-32.08-3.89-65-.57-96.28 7.23-88.24 22.01-167.15 79.85-218.17 154.75-16.15 23.72-28.35 49.77-43.09 74.33-4.6 4.25-27.93 7.49-35.21 9.38a867 867 0 0 0-35.88-58.13c28.29-51.32 48.43-86.91 89.33-130.09 82.05-88.18 195.82-140.07 316.19-144.24"/><path fill="#F0EFE0" d="M1512.61 1456.41c12.45-2.14 26.51-.17 39.03.94-22.63 22.92-43.02 47.61-66.42 69.9-67.77 64.57-149.9 108.95-236.92 141.69a325 325 0 0 1-30.26 10.22c14.54-33.48 34.8-65.75 58.14-93.77 58.92-70.76 144.02-120.67 236.43-128.98m-963.3 60.5c15.274.59 31.138 2.81 46.24 5.18 90.532 14.16 174.344 58.51 243.332 117.95 19.045 16.41 38.742 34.81 53.568 55.18-121.883-21.06-255.31-92.25-343.14-178.31"/><path fill="#BAD3CF" d="M1600.59 488.125c2.63-.076 5.19-.042 7.79.408 13.76 2.383 56.26 57.817 66.42 71.821 3.93 5.411 9.34 13.309 7.84 20.323-2.98 13.989-51.5 43.645-64.56 52.471-3.73 2.185-7.3 4.407-11.78 3.805-2.35-.316-4.16-.908-5.91-2.567-9.79-9.278-17.21-22.657-25.62-33.295-10.36-13.106-22.14-25.348-32.06-38.75-2.77-3.74-4.16-8.047-3.28-12.705 1.82-9.628 51.49-54.504 61.16-61.511M438.94 1409.76c.876.12 1.17.11 2.074.54 2.946 1.41 5.334 4.32 7.425 6.75 11.162 12.98 21.136 27.14 31.988 40.4 7.974 9.74 17.079 18.65 24.852 28.51 2.566 3.26 4.724 6.51 6.315 10.35-2.565 6.34-61.707 60.31-68.914 63.5-2.493 1.1-3.315.33-5.755-.56-7.947-5.89-14.747-13.5-21.362-20.81-8.936-9.89-56.669-66-54.412-75.94 1.643-7.25 68.004-48.64 77.789-52.74m1350.24-558.595c3.38-.201 7.7-.73 10.94.567 3.47 1.39 4.72 3.494 5.99 6.789 5.68 14.815 14.16 85.703 13.66 102.95-.14 4.738-.77 8.855-2.68 13.194-2.7 2.731-5.45 3.766-9.19 4.599-8.03 1.789-16.97 1.375-25.2 1.795q-22.245 1.053-44.46 2.636c-.42.036-.85.077-1.28.108-7.47.538-10.97-2.967-16.31-7.489-4.54-18.58-5.38-39.04-8.05-58.025-1.4-9.992-4.51-20.104-5.15-30.109-.2-3.206-.11-7.547 1.48-10.436 5.91-10.757 66.33-22.855 80.25-26.579m-503.71 816.955c2.43-.38 5.11-.81 7.54-.19 9.04 2.34 30.03 53.55 34.85 64.79 3.09 7.19 6.13 15.94 3.13 23.58-11.03 11.73-76.05 29.57-93.7 35.26a698 698 0 0 1-13.35 3.8c-5.12-2.62-10.09-5.03-12.83-10.42-5.25-10.35-16.85-58.47-17.82-70.56-.36-4.57-.09-8.36 1.36-12.7 2.75-3.31 6.27-4.98 10.14-6.75 10.61-4.85 22.57-7.57 33.64-11.25 15.64-5.2 31.1-11.35 47.04-15.56M1124.91 233.15c22.77 2.428 91.46 12.579 109.35 22.068 2.77 1.466 5.01 3.111 5.91 6.3.89 3.166.8 6.625.37 9.856-.99 7.636-3.74 15.228-5.5 22.734-4.02 17.189-5.63 38.726-14.42 54.108-3.59 2.113-7 3.869-11.27 3.676-11.21-.506-31.15-7.059-43.1-9.655-13.97-3.036-28.53-4.698-42.32-8.285-3.33-.864-11.96-3.043-13.37-6.027-1.82-3.853-1.81-9.172-1.74-13.394.12-8.289 5.22-70.828 7.58-75.702 1.8-3.743 4.85-4.581 8.51-5.679M1723 1116.14c1.34-.07 2.63-.11 3.97-.08 13.4.35 75.45 5.85 82.96 16.12 3.64 4.97 2.35 14.72 1.58 20.53-2.79 21.01-12.66 73.34-21.75 90.65-1.59 3.03-3.65 4.99-6.33 7.06-2.3.49-4.55.58-6.88.21-11.35-1.76-22.46-6.63-33.51-9.78-11.42-3.26-24.05-5.45-34.97-10.12-4.08-1.74-10.52-4.78-12.6-9.05-1.58-3.26-.37-9.5.14-13.05 2.21-15.41 6.65-30.84 9.81-46.12 2.54-12.3 3.93-27.03 8.17-38.76 1.64-4.53 5.31-5.81 9.41-7.61m-336.31-798.135c2.53-.042 4.7.105 7.1.978 16.36 5.949 76.85 42.555 89.76 54.532 2.3 2.138 4.21 4.208 4.25 7.471.23 14.68-35.57 60.049-46.74 71.434-3.52 2.176-6.9 4.385-11.2 4.207a13.9 13.9 0 0 1-5.54-1.44c-10.52-5.118-20.83-12.999-30.81-19.232-15.05-9.401-37.7-19.567-49.65-32.167-.98-4.456-.14-8.4 1.2-12.713 4.19-13.483 22.09-49.22 29.53-62.377 3.36-5.935 5.33-8.84 12.1-10.693M716.107 1648.81c3.01.08 5.712.84 8.518 1.93 13.405 5.19 26.333 11.84 39.672 17.27 12.617 5.15 25.87 9.24 38.264 14.84 3.651 1.65 8.054 3.7 10.917 6.5 1.595 1.56 1.428 3.83 1.307 5.91-.615 10.59-18.635 81.45-25.003 86.32-3.039 2.32-9.318-.24-12.584-1.15-18.888-6-92.972-31.4-103.146-44.44-.512-2.13-.673-3.73-.237-5.9.747-3.72 32.961-70.28 36.645-75.94 1.485-2.27 3.437-3.81 5.647-5.34m-197.325-140.13c3.106.11 5.214 1.14 7.649 2.97 11.477 8.64 21.514 19.78 32.362 29.26 14.218 12.43 29.491 23.62 43.677 36.1-3.922 12.6-46.886 72.31-57.329 78.65-3.057.15-4.139-.64-6.852-1.96-31.273-21.64-63.905-51.74-88.891-80.53 10.526-16.28 52.8-54.1 69.384-64.49m1125.328-158.6c3.22.01 6.22.7 9.26 1.74 11.28 3.84 22.01 10.06 32.85 15.02 9.14 4.19 19.19 7.38 27.64 12.86 4.41 2.86 8.54 6.83 9.52 12.2 4.02 21.88-45.16 84.71-57.63 102.51-.16.17-.3.38-.5.51-1.53.99-2.02 1.17-3.77.63-5.62-1.74-57.19-36.87-63.5-42.05-3.08-2.52-5.96-5.24-7.66-8.91-2.37-5.16-3.11-11.86-1.04-17.24 1.52-3.97 41.57-66.04 45.63-70.82 2.67-3.15 5.46-4.81 9.2-6.45M302.658 1066.57c4.095-.27 8.245-.62 12.349-.57 4.31.04 9.824 1.29 12.502 5.07 1.859 2.62 12.507 80.23 13.224 89.69.317 4.18.385 8.55-.844 12.58-11.985 6.89-61.158 14.86-77.486 18.43-5.66.91-11.615 2.36-17.036-.1-8.539-10.68-16.366-88.08-17.774-104.92-.416-4.98-.744-9.84 2.867-13.78 1.908-2.07 4.658-3.89 7.392-4.63 12.385-3.37 49.91-1.4 64.806-1.77m-41.291-266.666c14.061.456 80.364 17.227 90.557 24.138 1.808 4.233 1.209 10.457.612 14.983-1.828 13.845-6.139 27.808-8.908 41.544-2.205 10.932-5.01 38.392-8.876 46.768-1.205 2.61-3.795 3.389-6.285 4.398-12.919.188-65.949-4.963-78.571-7.94-3.307-.78-8.786-2.102-11.023-4.953-2.587-3.298-2.784-9.662-2.773-13.619.046-16.495 14.704-86.163 21.704-100.85.87-1.826 2.127-3.082 3.563-4.469m116.725 503.046c2.237-.01 4.298.15 6.267 1.36 1.107.68 1.955 1.65 2.583 2.77 7.51 13.43 13.523 28.02 20.604 41.73 8.054 15.6 18.409 30.74 24.047 47.42-.678 1.66-1.32 3.15-2.456 4.56-6.96 8.66-68.624 46.02-79.416 47.52a250 250 0 0 1-16.893-25.44c-7.846-13.26-41.588-72.3-38.548-84.16 7.642-9.7 69.022-30.21 83.812-35.76"/><path fill="#F0EFE0" d="M1503.12 394.963c10.22-.679 17.53 5.054 25.12 11.148 10.86 8.715 64.53 53.068 64.43 66.614-.1 13.578-45.38 50.286-56.71 60.174-4.01 2.923-8.08 4.959-13.19 4.01-2.35-.436-4.48-1.344-6.35-2.83-6.57-5.226-61.49-54.542-63.38-57.598-2.72-4.376-3.58-9.357-2.16-14.341 2.19-7.633 37.9-55.347 44.67-62.153 2.16-2.169 4.88-3.61 7.57-5.024"/><path fill="#BAD3CF" d="M1688.39 598.915c2.55.301 5.24 1.049 7.61 2.056 12.06 5.129 45.05 70.291 51.51 85.236 2.31 5.334 5.69 13.019 3.09 18.67-4.46 9.676-58.75 31.552-71.34 36.658-4.15 1.266-8.51 2.78-12.83 1.281-3.27-1.137-5.08-3.847-6.97-6.553-8.66-12.386-15.06-27.358-22.2-40.718-5.22-9.75-11.75-19.471-16-29.658-1.62-3.875-4.22-9.845-2.35-13.941 4.71-10.296 57.76-48.279 69.48-53.031"/><path fill="#F0EFE0" d="M338.569 1187.38c3.204-.38 4.459.28 6.96 1.97 6.257 12.33 8.74 28.28 13.057 41.58 4.707 14.5 10.983 28.69 15.149 43.31 1.081 3.8 1.925 7.88 2.084 11.82.081 2.01.501 3.01-1.017 4.52-6.226 6.22-67.767 28.6-78.892 31.59-2.322.63-4.682.68-7.07.62-1.235-.68-2.477-1.33-3.628-2.15-10.282-7.36-32.272-81.66-34.749-96.21-.644-3.79-1.891-12.03 1.015-15.2 6.422-7 73.752-20.19 87.091-21.85"/><path fill="#BAD3CF" d="M989.584 227.173c34.596-1.288 70.436-1.732 104.856 2.236 3.46 2.533 5.86 5.28 8.48 8.655.77 22.584-1.78 46.123-3.77 68.634-.79 8.938-1.25 15.752-8.41 21.779-6.46 1.443-88.66-.116-97.312-1.828-3.468-.686-6.673-1.371-8.543-4.574-4.274-7.322-6.88-76.22-4.406-85.719 1.257-4.828 4.994-6.965 9.105-9.183m-167.969 25.161c1.427-.008 1.759-.056 3.298.172 2.987.442 5.949 2.255 7.511 4.831 5.118 8.439 20.731 80.37 17.153 87.608-.99 2.004-4.186 3.642-6.066 4.6-5.105 2.601-83.177 28.43-87.486 29.118-2.675.427-5.153-.368-7.654-1.2-3.765-3.648-5.713-7.584-7.735-12.32-5.705-13.368-28.521-64.772-23.872-76.268 10.575-9.275 88.063-34.405 104.851-36.541"/><path fill="#F0EFE0" d="M828.899 1693.4c18.347.5 38.11 7.69 56.166 11.45 13.992 2.92 30.058 3.92 43.315 9.2 2.714 1.09 6.802 2.68 7.726 5.72 2.465 8.11-6.279 82.67-10.963 87.63-3.128 3.32-6.392 3.43-10.678 3.79-20.801-.33-90.739-15.68-110.121-23.25 1.045-14.52 18.276-83.77 24.555-94.54"/><path fill="#BAD3CF" d="M381.689 554.663c3.747.651 6.957 2.246 10.222 4.153 13.321 7.78 64.489 39.86 67.954 53.202-4.575 15.043-17.692 29.368-26.014 42.826-7.361 11.905-13.794 24.445-21.508 36.125-3.267 4.946-5.797 6.942-11.592 8.178-12.374-3.752-69.948-29.494-77.661-37.721-1.753-1.87-2.341-3.992-2.278-6.49.427-17.007 47.383-87.587 60.877-100.273m196.978-190.622c3.126.543 5.143 1.35 7.233 3.766 9.205 10.637 37.332 52.537 43.273 64.982 1.983 4.156 3.543 8.243 3.169 12.892-10.446 12.565-30.942 23.894-44.349 34.373-11.403 8.913-22.104 19.351-34.111 27.377-3.465.302-4.864-.649-8.008-2.023-10.76-7.811-55.792-50.945-58.628-61.732-.674-2.56.379-5.528 1.577-7.783 6.797-12.796 66.426-59.045 80.701-67.839 2.915-1.796 5.89-2.984 9.143-4.013"/><path fill="#F0EFE0" d="M241.795 935.243c13.216.599 77.238 4.47 85.392 9.481 2.901 1.783 2.997 4.009 3.461 7.199 2.302 15.832-1.058 35.06-1.828 51.097-.659 13.71-.059 28.31-1.947 41.88-.29 2.09-1.045 3.78-2.378 5.42-2.466 3.03-5.496 4.22-9.244 4.77-16.704.59-70.097 3.8-82.921-.82-1.981-1.81-3.061-3.34-3.995-5.88-5.185-14.1-2.607-94.077 3.122-105.378 2.214-4.368 5.891-6.257 10.338-7.769M1748.81 723.128c3.26-.164 6.82-.62 9.88.748 10.88 4.85 31.87 70.878 35.75 84.559 1.84 6.492 5.19 16.047 1.4 22.234-7.35 12.003-59.99 22.99-74.87 27.042-4.93.793-10.1 1.253-14.8-.787-4.25-1.849-6.41-7.706-8.12-11.722-4.47-10.508-7.11-21.88-10.96-32.65-4.68-13.102-12.14-27.294-14.79-40.809-.73-3.73.01-7.894 1.56-11.339 4.38-9.702 62.61-32.851 74.95-37.276M951.456 229.426c3.736-.323 7.83-.538 11.152 1.485 2.242 1.366 3.372 3.331 4.044 5.79 2.273 8.32 5.255 66.84 4.716 76.588-.194 3.519-.761 10.621-3.237 13.397-2.294 2.57-8.576 3.774-11.805 4.404-10.179 1.986-20.868 2.232-31.181 3.616-16.208 2.175-41.135 8.996-56.459 7.09-1.067-.685-2.123-1.347-3.085-2.178-3.129-2.706-4.448-6.58-5.591-10.426-3.764-12.671-4.132-26.684-6.761-39.691-2.223-10.998-6.678-22.043-7.639-33.192-.221-2.562-.244-5.784 1.543-7.786 8.683-9.732 88.122-17.737 104.303-19.097"/><path fill="#BAD3CF" d="M954.754 1717.16c14.718-1.1 30.197 1.38 44.979 1.98 15.707.63 31.507-.17 47.157.59 2.4.12 5.67.28 7.78 1.58 2.72 1.67 4.99 4 5.87 7.14 3.36 11.89 1.09 27.84 1.62 40.24.5 11.49 2.41 23.62 2 35.05-.14 3.59-.39 8.22-2.54 11.28-2.23 3.18-5.84 3.63-9.37 4.07-18.46.44-36.92.36-55.377-.22-11.751-.31-46.744 1.82-54.479-8.46-2.217-2.96-2.23-8.34-2.235-11.83-.013-10.78 2.407-21.89 3.529-32.62 1.13-10.81 1.339-21.79 2.976-32.53 1.086-7.14 2.032-11.87 8.09-16.27m537.826-176.15c2.44.11 4.52.21 6.65 1.5 7.86 4.76 49.63 45.53 57.87 54.84 2.37 2.68 4.16 5.13 3.66 8.86-1.61 11.81-68.63 60.13-82.92 69.92l-10.02 5.69c-9.65-8.01-47.95-57.84-53.2-68.78-1.53-3.19-2.7-6.11-1.23-9.56 1.58-3.71 4.69-7.06 7.62-9.76 7.66-7.08 16.98-12.87 25.29-19.21 14.79-11.27 29.17-26.02 46.28-33.5"/><path fill="#F0EFE0" d="M1160.68 1705.38c4.4-.83 9.4.02 13.14 2.49 3.13 2.06 5.25 4.76 6.83 8.14 6.46 13.87 14.34 49.52 17.21 65.36 1.11 6.17 1.23 12.37-2.77 17.66-5.47 7.22-73.3 14.56-87.16 16.27-8.38 1.02-20.61 4.08-28.32.26-2.85-3.53-3.88-7.69-4.56-12.12-1.7-11.01-1.38-22.8-1.91-33.94-.54-11.31-2.27-23.63-1.22-34.9.39-4.23 1.45-9.26 4.16-12.65 1.58-1.97 3.6-2.59 5.97-3.23 10.94-2.93 22.7-3.97 33.88-5.77 14.94-2.41 29.78-5.37 44.75-7.57m529-465.32c13.07-.66 69.77 15.64 81.11 22.73 3.72 2.34 7.38 5.5 8.26 10.01 2.95 15.16-29.17 85.43-39.72 98.97-2.21 1.14-4.52 2-7.03 1.76-12.1-1.18-71.1-27.44-77.8-37.03-3.09-4.42-1.87-10.65-.76-15.57 2.23-9.96 22.14-63.46 26.74-71.49 2.4-4.18 5.13-6.85 9.2-9.38M309.225 674.911c3.147.12 5.976.581 8.986 1.525 11.652 3.656 74.793 28.643 77.696 38.13 2.636 8.614-26.088 71.463-31.242 83.032-2.522 5.662-4.213 10.11-10.323 12.425-11.417-1.843-77.419-18.158-84.836-24.607-2.169-1.886-2.75-3.769-2.956-6.567-1.178-16.014 31.565-91.798 42.675-103.938m302.964 912.749c3.413.86 6.484 2.02 9.565 3.72 10.77 5.95 20.624 13.55 31.162 19.9 13.75 8.29 32.204 14.97 43.862 25.68 2.369 2.18 4.413 4.57 4.334 7.94-.24 10.15-32.86 75.73-40.479 83.04-3.448.74-5.37-.28-8.708-1.28-23.321-10.98-77.993-42.75-94.565-60.67 7.718-14.42 44.337-69.12 54.829-78.33M1786.23 991.575c7.44-.496 23.75-3.054 29.43 2.697 10.58 10.728 5.3 76.708 3.57 93.848-.72 7.07-2.82 18.3-9 22.72-8.98 6.43-43.27-.78-54.99-2.27-10.18-2.24-24-.06-32.67-6.63-3.44-2.62-4.05-6.78-4.62-10.82-2.04-14.45 1.11-31 1.69-45.64.43-10.96-.41-22.44 1.19-33.28.64-4.31 1.67-9.47 4.53-12.887 4.85-5.772 51-6.82 60.87-7.738M692.721 298.003c1.103-.044 2.685-.212 3.802.045 2.84.653 4.695 2.786 6.238 5.107 6.233 9.375 34.548 76.081 31.069 83.92-2.04 4.595-73.147 41.733-80.718 44.364-4.624 1.607-7.905.121-11.943-1.969-9.377-9.524-39.232-54.334-44.001-66.202-1.223-3.042-2.414-6.624-.929-9.758 5.484-11.572 81.444-49.946 96.482-55.507m565.729-32.962c14.96-.489 83.91 26.288 99.13 35.474 3.22 1.94 7.16 4.754 7.95 8.649 2.14 10.552-23.61 66.855-30.71 76.703-3.53 3.405-7.39 6.368-12.53 6.107-7.97-.405-66.39-23.45-77.2-28.711-3.15-1.534-8.01-3.951-10.08-6.902-1.63-2.326-1.57-6.591-1.4-9.286.86-13.505 13.8-63.419 19.72-75.547 1.28-2.625 3-4.525 5.12-6.487m313.92 1189.909 1.04.03c4.52.2 7.54 1.18 11.59 3.15 9.23 4.5 53.12 33.4 58.99 40.16 3.24 3.74 5.14 7.67 4.62 12.71-1.85 17.7-52.26 65.08-67.24 77.26-3.34 1.82-6.55 3.36-10.47 2.99-8.58-.81-51.52-44.7-58.05-53.6-2.42-3.31-5.43-8.15-4.53-12.42 2.35-11.29 53.33-63.03 64.05-70.28m-177.38 160.33c9.81 2.11 44.26 48.21 50.74 57.92 2.9 4.36 7.05 10.7 5.69 16.13-3.77 14.97-69.55 45.22-84.7 53.07-5.38 2.45-10.57 4.35-16.3 1.87-8.55-3.69-31.07-54.09-35.53-64.94-2.09-5.1-5.87-14.96-2.84-20.12 5.01-8.53 62.49-37.77 74.04-41.94 2.87-1.04 5.88-1.55 8.9-1.99M470.237 454.775c5.095-.07 7.106.729 11.138 3.779 12.284 9.289 53.749 48.338 55.768 62.528-1.283 3.639-4.334 7.096-6.816 10.03-5.31 6.277-54.885 62.223-57.625 63.636-3.415 1.76-6.257 1.078-9.726.134-11.668-7.09-22.453-16.01-33.45-24.126-12.548-9.259-26.062-18.117-37.542-28.665 16.446-27.012 53.218-68.289 78.253-87.316"/><path fill="#C15549" d="m1816.89 502.693 7.43-4.624c24.92 38.844 48.69 77.911 68.66 119.592 4.49 9.362 10.07 19.379 12.78 29.368-1.46 2.549-5.15 3.549-7.83 4.79-10.72 6.589-23.92 11.212-35.54 15.997a4081 4081 0 0 1-72.33 28.571c-20.21-45.513-43.32-84.46-68.35-127.286 32.74-20.684 62.74-45.382 95.18-66.408"/><path fill="#711411" d="m1816.89 502.693 7.43-4.624c24.92 38.844 48.69 77.911 68.66 119.592 4.49 9.362 10.07 19.379 12.78 29.368-1.46 2.549-5.15 3.549-7.83 4.79-5.99-12.969-11.27-26.174-17.63-38.993-18.88-38.055-40.65-74.308-63.41-110.133"/><path fill="#C15549" d="M1033.63 1855.9c47.79-.71 97.97-4.71 144.62-15.49a3352 3352 0 0 1 22.24 115.87c.37 2.68 1.29 5.78-.02 8.27-23.79 9.09-136.08 19.35-164.9 17.38l-1.39-.94c-.37-2.77-.51-5.28-.47-8.07-1.33-38.92.19-78.06-.08-117.02"/><path fill="#711411" d="M1200.49 1956.28c.37 2.68 1.29 5.78-.02 8.27-23.79 9.09-136.08 19.35-164.9 17.38l-1.39-.94c-.37-2.77-.51-5.28-.47-8.07 47.62.59 120.86-4.72 166.78-16.64"/><path fill="#C15549" d="M566.996 1717.62c40.334 25.79 82.505 51.96 126.857 70.35a3496 3496 0 0 1-40.107 109.4l-3.489 9.58c-30.407-12.89-126.386-58.28-145.699-79.2-.397-3 .904-4.52 2.214-7.19 19.79-34.46 41.121-68.11 60.224-102.94"/><path fill="#711411" d="M506.772 1820.56c44.404 29.76 96.791 57.89 146.974 76.81l-3.489 9.58c-30.407-12.89-126.386-58.28-145.699-79.2-.397-3 .904-4.52 2.214-7.19"/><path fill="#C15549" d="M1559.18 238.948c1.75-2.35 2.6-4.297 5.37-5.435 28.13 15.993 108.06 80.664 127.33 104.417-.4 2.83-1.51 3.793-3.23 6.032-26.69 29.971-56.56 56.843-83.15 86.939-32.64-35.448-73.79-66.242-113.35-93.465 22.97-32.472 44.39-65.846 67.03-98.488"/><path fill="#711411" d="M1559.18 238.948c1.75-2.35 2.6-4.297 5.37-5.435 28.13 15.993 108.06 80.664 127.33 104.417-.4 2.83-1.51 3.793-3.23 6.032-6.82-4.766-12.98-10.92-19.24-16.413-13.25-11.626-26.39-23.444-39.9-34.771-22.66-19.005-47.1-35.572-70.33-53.83"/><path fill="#C15549" d="M1710.14 1494.48a3095 3095 0 0 1 98.98 63.08c2.19 1.52 4.35 2.6 5.67 4.96-9.61 23.15-84.61 113.98-105.51 129.79l-1.84.21c-1.65-1.46-3.24-2.87-4.75-4.49-8.82-9.96-18.77-19.23-28.15-28.68l-55.02-55.24c32.28-35.25 62.09-71.26 90.62-109.63"/><path fill="#711411" d="M1809.12 1557.56c2.19 1.52 4.35 2.6 5.67 4.96-9.61 23.15-84.61 113.98-105.51 129.79l-1.84.21c-1.65-1.46-3.24-2.87-4.75-4.49 29.51-31.18 56.9-63.01 82.9-97.19 8.02-10.55 17.52-21.48 23.53-33.28"/><path fill="#C15549" d="M1350.99 1788.53c43.73-18.86 87.61-42.13 126.44-69.79 13.4 21.8 27.78 42.78 42.25 63.87 8.17 11.91 17.25 23.83 24.12 36.54 1.63 2.53 3.45 4.24 3.37 7.32-14.86 12.09-133.35 78.11-148.06 76.89-1.27-1.83-2.09-3.54-2.92-5.6-15.11-36.45-29.07-73.2-45.2-109.23"/><path fill="#711411" d="M1543.8 1819.15c1.63 2.53 3.45 4.24 3.37 7.32-14.86 12.09-133.35 78.11-148.06 76.89-1.27-1.83-2.09-3.54-2.92-5.6 2.75-4.04 29.98-14.04 36.23-17.1 38.29-18.72 74.95-39.44 111.38-61.51"/><path fill="#C15549" d="M1603.95 1618.44c27.8 22.39 58.35 57.43 83.73 83.72l6.5 7.27c-32.83 29.32-65.57 57.92-100.76 84.39-8.68 6.54-18.21 14.86-28 19.49-2.64-1.3-3.88-3.56-5.48-5.91-21.77-33.14-44.1-65.9-67-98.27 36.71-23.5 79.68-59.92 111.01-90.69"/><path fill="#711411" d="m1687.68 1702.16 6.5 7.27c-32.83 29.32-65.57 57.92-100.76 84.39-8.68 6.54-18.21 14.86-28 19.49-2.64-1.3-3.88-3.56-5.48-5.91 13.13-11.06 28.08-20.18 41.74-30.62 29.82-22.79 59.44-48.11 86-74.62"/><path fill="#C15549" d="M1960.25 848.887c3.05-.378 5.35-1.3 8.07.219 7.01 23.324 19.61 143.467 14.25 164.304-2.73.8-5.06.83-7.86.8l-116.77.63c-.75-49.647-5.49-97.57-13.82-146.476q57.93-10.56 116.13-19.477"/><path fill="#711411" d="M1960.25 848.887c3.05-.378 5.35-1.3 8.07.219 7.01 23.324 19.61 143.467 14.25 164.304-2.73.8-5.06.83-7.86.8-.36-36.407-2.47-72.774-6.32-108.978-2.18-18.857-6.08-37.484-8.14-56.345"/><path fill="#C15549" d="M1701.43 360.175c2-1.953 4.11-4.795 7.01-5.119 22.28 16.262 89.24 100.137 103.84 125.359l-6.94 5.965c-10.73 9.395-23.26 17.242-34.83 25.616l-59.24 43.312c-28.01-41.751-61.12-77.671-95.06-114.608 12.05-10.456 23.35-21.864 35-32.771 16.85-15.777 34.02-31.292 50.22-47.754"/><path fill="#711411" d="M1701.43 360.175c2-1.953 4.11-4.795 7.01-5.119 22.28 16.262 89.24 100.137 103.84 125.359l-6.94 5.965c-20.65-33.244-46.66-63.812-72.36-93.188-9.69-11.073-19.9-23.995-31.55-33.017"/><path fill="#C15549" d="M150.694 1395.73c36.047-13.45 70.944-29.53 107.324-42.26 21.142 43.65 43.015 86.29 70.614 126.29-31.995 21.78-65.159 42.06-96.789 64.33l-7.835 5.42c-25.514-37.54-47.116-76.87-66.703-117.75-4.614-9.62-11.609-21.61-12.913-32.17 1.69-2.26 3.777-2.72 6.302-3.86"/><path fill="#711411" d="M150.694 1395.73c21.623 52.08 49.814 101.58 81.149 148.36l-7.835 5.42c-25.514-37.54-47.116-76.87-66.703-117.75-4.614-9.62-11.609-21.61-12.913-32.17 1.69-2.26 3.777-2.72 6.302-3.86"/><path fill="#C15549" d="M74.043 1014.01c-.411.01-.822.01-1.233.01-2.806-.02-5.584.41-7.583-1.64-1.762-26.802 9.22-143.276 17.318-166.345 3.064-.935 5.772-.019 8.87.537 38.219 6.354 75.878 15.735 113.924 22.967-10.069 43.697-14.848 100.641-15.905 145.391z"/><path fill="#711411" d="M74.043 1014.01c-.411.01-.822.01-1.233.01-2.806-.02-5.584.41-7.583-1.64-1.762-26.802 9.22-143.276 17.318-166.345 3.064-.935 5.772-.019 8.87.537-9.442 55.816-14.99 110.862-17.373 167.438"/><path fill="#C15549" d="M868.266 1840.45c48.168 9.26 96.777 13.35 145.724 15.34-.02 39.11-.83 78.38.12 117.46.12 2.73.09 5.07-.29 7.77-10.21 5.65-144.266-10.11-165.253-15.85-1.216-2.71.067-5.83.718-8.6 6.874-38.36 15.045-77.35 18.981-116.12"/><path fill="#711411" d="M849.285 1956.57a912 912 0 0 0 164.825 16.68c.12 2.73.09 5.07-.29 7.77-10.21 5.65-144.266-10.11-165.253-15.85-1.216-2.71.067-5.83.718-8.6"/><path fill="#C15549" d="M1839.68 1196.13c36.18 10.91 77.12 17.57 114.39 24.13 2.8.77 6.58 1.19 8.44 3.56-4.16 27.73-13.63 56.35-21.66 83.17-7.23 24.16-13.96 50.1-24.79 72.88l-1.48 1.06c-1.97-.54-3.86-1.08-5.75-1.84-37.67-13.65-74.4-29.73-112.09-43.3 17.33-46.04 32.59-91.49 42.94-139.66"/><path fill="#711411" d="M1954.07 1220.26c2.8.77 6.58 1.19 8.44 3.56-4.16 27.73-13.63 56.35-21.66 83.17-7.23 24.16-13.96 50.1-24.79 72.88l-1.48 1.06c-1.97-.54-3.86-1.08-5.75-1.84 5.56-22.34 14.38-44.46 21.12-66.54a1539 1539 0 0 0 24.12-92.29"/><path fill="#C15549" d="M1857.86 1034.21c27.74.36 55.49.43 83.23.21 14.06-.08 28.95-1.33 42.88-.02-.03 40.19-4.55 80.53-9.29 120.42-1.78 14.95-2.8 31.6-7.08 46.05-1.64 1.28-2 .88-3.97.64-1.96-.24-3.87-.75-5.78-1.23-17.92-4-36.13-7.05-54.14-10.65-20.12-4.03-40.14-8.65-60.35-12.24 10.48-40.68 13.28-100.75 14.5-143.18"/><path fill="#711411" d="M1957.85 1200.28c7.97-29.48 12.75-81.37 14.73-112.53.5-7.85 1.03-48.57 3.34-52.27l8.05-1.08c-.03 40.19-4.55 80.53-9.29 120.42-1.78 14.95-2.8 31.6-7.08 46.05-1.64 1.28-2 .88-3.97.64-1.96-.24-3.87-.75-5.78-1.23"/><path fill="#C15549" d="M1905.87 671.178c3.23-1.065 6.44-2.169 9.69-3.191 5.43 15.569 11.68 30.829 17.08 46.403a1172 1172 0 0 1 24.24 80.592c2.73 10.478 6.58 22.118 6.89 32.945-1.84 2.112-4.26 2.188-6.92 2.905-13.56.431-27.94 3.639-41.36 5.754-25.14 3.961-50.4 7.687-75.27 13.125-7.41-30.185-15.54-61.167-25.28-90.68-5.29-16.033-12.31-31.432-17.35-47.555 36.65-12.104 72.27-26.475 108.28-40.298"/><path fill="#711411" d="M1905.87 671.178c3.23-1.065 6.44-2.169 9.69-3.191 5.43 15.569 11.68 30.829 17.08 46.403a1172 1172 0 0 1 24.24 80.592c2.73 10.478 6.58 22.118 6.89 32.945-1.84 2.112-4.26 2.188-6.92 2.905-3.87-6.092-5.31-17.472-7.06-24.627-11.8-48.426-27-88.692-43.92-135.027"/><path fill="#C15549" d="M360.588 1702.68c11.663-15.82 27.121-29.57 40.764-43.67 12.968-13.41 25.388-27.87 39.322-40.24 20.659 15.34 39.133 33.88 59.093 50.18 16.381 13.37 34.369 24.8 50.504 38.4-19.834 32.51-38.956 65.85-59.699 97.76l-7.148 10.58c-30.678-19.62-105.741-79.1-126.765-106.06.075-3.05 2.093-4.59 3.929-6.95"/><path fill="#711411" d="M360.588 1702.68c29.656 26.03 94.874 89.97 129.984 102.43l-7.148 10.58c-30.678-19.62-105.741-79.1-126.765-106.06.075-3.05 2.093-4.59 3.929-6.95"/><path fill="#C15549" d="M74.017 1034.77c38.225-1.22 76.846-.92 115.081.05 2.782 47.63 5.753 97.03 15.83 143.73a2047 2047 0 0 0-116.532 21.77c-2.196.52-4.293.81-6.538 1.03-7.9-15.65-19.265-144.2-17.485-165.68 2.752-1.49 6.52-.93 9.644-.9"/><path fill="#711411" d="M88.396 1200.32c-2.196.52-4.293.81-6.538 1.03-7.9-15.65-19.265-144.2-17.485-165.68 2.752-1.49 6.52-.93 9.644-.9.793 38.29 3.452 76.52 7.969 114.55 1.88 16.86 5.57 34.13 6.41 51"/><path fill="#C15549" d="M1033.51 66.25c16.85.566 33.74.8 50.56 1.892 14.47.939 108.02 9.042 116.58 15.476.31 2.89 0 5.05-.61 7.84-3.46 15.191-5.66 30.813-8.38 46.162-4.21 22.558-8.23 45.15-12.07 67.773-43.95-11.261-101.31-15.028-146.76-15.608.22-27.176.27-54.353.18-81.53-.02-13.734-1.07-28.378.5-42.005"/><path fill="#711411" d="M1033.51 66.25c16.85.566 33.74.8 50.56 1.892 14.47.939 108.02 9.042 116.58 15.476.31 2.89 0 5.05-.61 7.84-39.74-7.867-80.52-12.2-120.94-14.748-14.65-.924-29.69.772-44.21-1.232-1.39-2.668-1.19-6.224-1.38-9.228"/><path fill="#C15549" d="M1788.74 1352.8c36.56 14.5 72.99 29.35 109.28 44.54 2.77 1.22 5.56 2.04 7.63 4.3-4.1 16.77-65.24 134.01-78.09 143.13-2.18-.88-3.99-1.85-5.95-3.15-33.55-20.6-65.74-43.47-99.61-63.54 7.91-14.35 17.06-28.1 25.02-42.49 15-27.11 28.43-54.82 41.72-82.79"/><path fill="#711411" d="M1898.02 1397.34c2.77 1.22 5.56 2.04 7.63 4.3-4.1 16.77-65.24 134.01-78.09 143.13-2.18-.88-3.99-1.85-5.95-3.15 12.49-21.93 25.95-43.25 38.17-65.37 14.2-25.69 26.59-51.97 38.24-78.91"/><path fill="#C15549" d="M711.664 1794.81c23.259 8.49 46.461 17.29 70.098 24.68 22.217 6.94 44.883 12.52 67.439 18.23-6.574 38.38-13.988 76.63-19.977 115.1-.501 2.83-.688 5.58-2.526 7.9-18.149 1.1-137.596-35.93-155.235-45.33-.86-3.03.722-6.34 1.618-9.25 6.941-21.42 14.849-42.45 22.713-63.54 5.818-15.6 12.375-31.48 15.87-47.79"/><path fill="#711411" d="M673.081 1906.14c32.245 10.92 63.873 23.6 96.626 33.09 19.608 5.68 40.027 8.08 59.517 13.59-.501 2.83-.688 5.58-2.526 7.9-18.149 1.1-137.596-35.93-155.235-45.33-.86-3.03.722-6.34 1.618-9.25"/><path fill="#C15549" d="m648.867 142.32 3.614 8.88c15.007 35.54 30.449 70.65 44.128 106.746-41.614 15.032-90.523 43.359-127.418 67.814-13.36-20.433-26.488-41.053-40.105-61.314-7.744-11.522-16.971-22.917-23.856-34.911-1.159-1.495-2.163-2.932-3.037-4.608-.698-1.339-1.112-1.257-.575-2.391 2.236-4.73 13.772-10.436 18.572-13.383 41.489-25.47 84.531-46.525 128.677-66.833"/><path fill="#711411" d="m648.867 142.32 3.614 8.88c-51.195 21.918-100.006 49.018-147.251 78.335-1.159-1.495-2.163-2.932-3.037-4.608-.698-1.339-1.112-1.257-.575-2.391 2.236-4.73 13.772-10.436 18.572-13.383 41.489-25.47 84.531-46.525 128.677-66.833"/><path fill="#C15549" d="M1196.97 1838.35c47.09-10.93 92.2-24.9 136.97-43.25 14.37 36.61 28.2 73.57 43.97 109.6 1.07 2.73 2.51 4.77 1.83 7.68-26.62 14.61-125.98 44.42-156.63 48.51-1.75-.84-1.31-.22-1.9-1.98-.72-2.15-1.06-4.29-1.42-6.51-6.93-38.15-14.54-76.17-22.82-114.05"/><path fill="#711411" d="M1219.79 1952.4c54.03-9.29 106.77-28.94 158.12-47.7 1.07 2.73 2.51 4.77 1.83 7.68-26.62 14.61-125.98 44.42-156.63 48.51-1.75-.84-1.31-.22-1.9-1.98-.72-2.15-1.06-4.29-1.42-6.51"/><path fill="#C15549" d="m1395.39 150.167 3.58-8.84c21.45 8.811 138.97 65.924 147.25 80.072a49 49 0 0 1-4 6.629c-22.15 32.236-43.12 65.068-64.04 98.106-39.34-26.429-81.29-47.317-124.21-67.098a8128 8128 0 0 1 41.42-108.869"/><path fill="#711411" d="m1395.39 150.167 3.58-8.84c21.45 8.811 138.97 65.924 147.25 80.072a49 49 0 0 1-4 6.629c-13.07-9.509-27.62-17.611-41.6-25.69-33.86-19.572-68.77-37.92-105.23-52.171"/><path fill="#C15549" d="M150.934 652.011c-2.744-1.318-5.026-2.489-7.339-4.531 2.887-9.583 8.206-19.006 12.508-28.044a871 871 0 0 1 47.485-88.288c5.964-9.885 11.656-20.237 18.462-29.566 2.524-.247 4.324 1.968 6.317 3.466 32.991 20.2 66.464 40.969 98.217 63.054-25.801 39.699-49.12 83.194-67.74 126.75-35.85-14.087-72.836-27.015-107.91-42.841"/><path fill="#711411" d="M150.934 652.011c-2.744-1.318-5.026-2.489-7.339-4.531 2.887-9.583 8.206-19.006 12.508-28.044a871 871 0 0 1 47.485-88.288c5.964-9.885 11.656-20.237 18.462-29.566 2.524-.247 4.324 1.968 6.317 3.466-3.758 10.699-11.126 21.135-16.981 30.83-7.957 13.175-15.764 26.363-22.967 39.97a1320 1320 0 0 0-24.311 48.232c-4.339 9.119-8.06 19.267-13.174 27.931"/><path fill="#C15549" d="M1219.15 95.001c.89-3.209 1.05-5.776 3.45-8.132 11.79.58 24.55 4.95 35.97 7.87 40.98 10.48 82.98 21.496 121.75 38.612l-3.36 8.488c-4.6 9.406-7.87 20.281-11.64 30.096-10.14 26.347-19.77 52.422-28.1 79.413-45.63-18.145-91.32-32.195-139.18-43.069 7.86-37.451 14.39-75.589 21.11-113.278"/><path fill="#711411" d="M1219.15 95.001c.89-3.209 1.05-5.776 3.45-8.132 11.79.58 24.55 4.95 35.97 7.87 40.98 10.48 82.98 21.496 121.75 38.612l-3.36 8.488c-34.69-17.526-87.21-30.552-125.4-39.799-10.73-2.598-21.79-4.086-32.41-7.039"/><path fill="#C15549" d="m340.054 354.705 6.28 5.287a1114 1114 0 0 1 49.598 48.835c10.319 10.823 20.187 22.531 31.163 32.66-15.221 17.3-31.189 34.147-45.704 52.04-15.636 19.277-29.707 39.752-44.484 59.681-21.604-17.688-46.741-32.038-70.369-46.885-7.948-4.994-17.732-9.806-24.854-15.713l-8.936-4.883a1017 1017 0 0 1 107.306-131.022"/><path fill="#711411" d="m340.054 354.705 6.28 5.287c-9.625 11.648-20.147 22.551-29.985 34.028a1120 1120 0 0 0-55.352 68.99c-6.414 8.527-15.027 17.921-19.313 27.6l-8.936-4.883a1017 1017 0 0 1 107.306-131.022"/><path fill="#C15549" d="M671.518 141.533c-1.287-3.024-2.567-4.629-1.894-7.898 9.015-5.009 20.283-8.079 30.037-11.494a1027 1027 0 0 1 97.037-29.208c9.942-2.392 20.02-5.263 30.172-6.483 1.889 1.786 1.863 4.39 2.396 6.898 8.487 38.345 14.366 77.271 22.865 115.571-47.406 9.673-92.501 23.006-137.714 40.264-13.402-36.248-29.288-71.5-42.899-107.65"/><path fill="#711411" d="M671.518 141.533c-1.287-3.024-2.567-4.629-1.894-7.898 9.015-5.009 20.283-8.079 30.037-11.494a1027 1027 0 0 1 97.037-29.208c9.942-2.392 20.02-5.263 30.172-6.483 1.889 1.786 1.863 4.39 2.396 6.898-19.691 7.131-41.538 10.801-61.786 16.681-32.43 9.418-63.989 20.749-95.962 31.504"/><path fill="#C15549" d="M355.1 339.33c36.903-38.281 83.999-75.573 127.811-105.626l5.649 9.261a7835 7835 0 0 1 64.803 93.473c-16.091 11.624-32.764 22.797-48.274 35.182-22.026 17.589-42.34 37.037-62.717 56.464-15.595-14.482-30.222-30.064-45.166-45.22-11.891-12.061-24.274-23.787-35.902-36.085z"/><path fill="#711411" d="M355.1 339.33c36.903-38.281 83.999-75.573 127.811-105.626l5.649 9.261c-30.659 14.838-76.144 55.353-101.309 78.768-8.688 8.083-16.78 17.645-25.947 25.046z"/><path fill="#C15549" d="M94.477 1219.8c38.213-8.28 76.321-14.12 114.79-20.75 8.39 44.42 22.368 93.88 40.619 135.35-36.12 13.16-70.874 29.94-106.983 43.1-2.527.7-4.837 1.14-7.441 1.45-.477-.39-1.018-.7-1.432-1.15-8.992-9.79-46.505-137.62-48.283-154.83 2.023-2.4 5.793-2.56 8.73-3.17"/><path fill="#711411" d="M142.903 1377.5c-2.527.7-4.837 1.14-7.441 1.45-.477-.39-1.018-.7-1.432-1.15-8.992-9.79-46.505-137.62-48.283-154.83 2.023-2.4 5.793-2.56 8.73-3.17 8.259 36.84 18.483 74.24 30.599 110 5.439 16.04 12.669 31.64 17.827 47.7"/><path fill="#C15549" d="M848.133 82.063c44.17-7.205 88.084-12.98 132.847-14.88 10.288-.438 21.75-1.77 31.9-.148 1.74 2.357 1.15 5.137 1.2 8.024-.26 38.314-.22 76.63.11 114.944-47.01 1.457-96.939 3.791-142.686 15.275-5.814-37.966-13.179-76.304-21.228-113.849z"/><path fill="#711411" d="M848.133 82.063c44.17-7.205 88.084-12.98 132.847-14.88 10.288-.438 21.75-1.77 31.9-.148 1.74 2.357 1.15 5.137 1.2 8.024-51.787-.385-113.067 5.928-163.804 16.37z"/><path fill="#C15549" d="M243.687 1561.57c21.678-16.96 45.552-31.34 68.119-47.11 8.85-6.19 18.638-12.52 26.456-19.96 26.703 39.43 57.675 74.98 89.793 110.04a1708 1708 0 0 0-81.464 84.4l-6.825 5.21c-37.046-39.19-74.107-80.74-102.918-126.5 2.161-2.13 4.552-4.08 6.839-6.08"/><path fill="#711411" d="M236.848 1567.65c2.161-2.13 4.552-4.08 6.839-6.08 26.334 42.12 67.591 92.05 102.904 127.37l-6.825 5.21c-37.046-39.19-74.107-80.74-102.918-126.5"/><path fill="#C15549" d="M95.024 825.968c-2.806-.739-5.005-1.498-7.507-2.981-2.737-13.815 38.523-137.846 48.516-154.337 2.752-.408 4.868.924 7.432 1.907 22.369 8.011 44.263 17.56 66.366 26.282 13.481 5.32 27.864 9.741 40.962 15.848-16.353 45.041-30.609 89.51-42.063 136.062-38.042-7.055-75.814-15.014-113.706-22.781"/><path fill="#711411" d="M95.024 825.968c-2.806-.739-5.005-1.498-7.507-2.981-2.737-13.815 38.523-137.846 48.516-154.337 2.752-.408 4.868.924 7.432 1.907-6.509 24.862-18.776 48.555-26.398 73.246a1130 1130 0 0 0-14.149 50.229c-2.492 10.061-4.014 22.514-7.895 31.936"/></svg>