<svg xmlns="http://www.w3.org/2000/svg" height="1024" preserveAspectRatio="none" style="display:block" viewBox="63.69078063964844 71.42386627197266 1934.9091796875 1905.31982421875" width="1024"><path d="M213.351 512.368c11.368-21.381 41.678-60.584 57.726-80.722a966.34 966.34 0 0 1 465.856-318.208c237.933-72.765 507.897-51.2 728.097 66.155 224.95 117.926 393.42 320.893 467.9 563.715a970.56 970.56 0 0 1 27.13 445.542c-4.98 28.86-15.05 76.82-25.85 104.31l41.82 30.1c6.56 4.69 16.58 11.28 22.57 16.19-16.34 5.43-41.31 13.26-56.27 20.72 8.01 42.66 20.94 86.61 28.81 129.52 2.69 14.64 7.12 31.46 8.35 46.1-32.88-18.99-83.31-52.58-116.46-64.98-114.2 217.78-309.12 382.2-543.03 458.07-245.97 80.49-513.958 58.82-743.797-60.15-219.52-115.4-385.498-311.72-462.779-547.37a993 993 0 0 1-24.967-89.92C54.137 1076 57.82 900.953 105.126 748.768c8.364-26.906 21.211-67.014 33.886-92.277-2.513-2.414-18.108-11.518-21.981-13.811-18.824-11.142-39.873-28.319-53.237-45.634-.76-4.698 2.779-8.666 7.265-9.148 4.61 2.772 17.24 16.032 22.463 20.424 9.752 8.204 22.342 16.559 30.787 25.484-5.74-23.526-9.308-48.966-13.583-72.883-.306-1.711.569-3.893 1.259-5.411 3.152-2.677 1.431-2.024 5.098-2.568 12.462 7.305 11.631 72.069 27.894 88.011 4.369-17.772 27.19-63.366 36.728-79.186-.409-2.931-16.7-19.016-19.778-22.295-19.736-21.022-42.223-51.069-54.329-77.22 3.686-3.241 5.498-4.287 9.733-6.913 23.823 17.186 49.952 30.849 75.223 45.757 6.276 3.702 14.118 8.58 20.797 11.27" fill="#fefefe"/><path d="M306.328 735.586c6.208 1.175 13.54 3.455 19.579 5.479 59.521 19.954 123.832 18.518 185.932 18.971 30.539.223 64.031 2.036 94.757-.777 189.088-17.309 372.259-72.893 557.574-111.566 146.57-30.557 299.99-52.377 449.03-27.237 16.28 2.748 56.82 8.555 70.45 14.608 15.72 22.976 36.79 70.373 47.35 96.257 56.03 137.223 74.11 283.119 46.8 429.299-3.22 17.16-6.77 34.26-10.63 51.29-266.33-75.09-493.39-28.64-751.58 49.58a3801 3801 0 0 0-125.627 39.46c-57.115 19.21-114.048 40.28-170.949 59.41-22.328 7.31-44.232 15.86-66.679 22.82-4.82 1.5-9.679 2.96-14.388 4.78q-14.18 4.455-28.312 9.06c-23.163 8.03-50.2 15.09-74.058 21.71-44.299 13.71-104.859 23.96-151.342 33.22-16.358-23.06-36.944-59.57-49.385-84.88a777.07 777.07 0 0 1-58.652-536.606c8.072-32.746 19.25-63.02 30.13-94.878" fill="#564241"/><path d="m629.236 1132.65 47.674 99.24c6.503.5 13.037 1.18 19.498 2.06 29.546 4.04 59.327 6.28 88.841 10.42a2148 2148 0 0 1-79.119 77.02c3.627 12.07 8.266 27.48 12.884 38.97-22.328 7.31-44.232 15.86-66.679 22.82-4.82 1.5-9.679 2.96-14.388 4.78q-14.18 4.455-28.312 9.06c-23.163 8.03-50.2 15.09-74.058 21.71.588-7.43 4.597-25.15 6.271-33.57 4.342-21.15 8.379-42.36 12.11-63.62-13.579-11.44-26.489-25-39.75-36.9-14.778-13.26-29.638-25.67-43.818-39.62 33.1-.52 78.761-8.19 113.068-11.35 12.568-28.46 31.313-74.35 45.778-101.02" fill="#ad181c"/><path d="M609.635 1397.02c3.607-6.19 17.025-15.48 24.529-15 3.171 2.28 2.182 1.58 3.783 5.94q-14.18 4.455-28.312 9.06" fill="#525251"/><path d="M311.639 1014.69c-3.531-13.07-5.425-23.563-6.235-37.158-3.738-62.798 38.81-121.198 104.607-123.484a103.8 103.8 0 0 1 74.941 28.79c25.508 24.047 35.004 54.068 36.118 88.283 5.328 8.652 1.23 23.953-.714 33.549-6.528 32.23-26.294 62.55-54.902 79.81a103.42 103.42 0 0 1-79.181 11.09c-34.102-8.78-56.575-32.29-70.63-63.43-2.365-5.24-5.914-11.64-4.004-17.45" fill="#fefefe"/><path d="M521.07 971.121c5.328 8.652 1.23 23.953-.714 33.549-6.528 32.23-26.294 62.55-54.902 79.81a103.42 103.42 0 0 1-79.181 11.09c-34.102-8.78-56.575-32.29-70.63-63.43-2.365-5.24-5.914-11.64-4.004-17.45 5.271 14.1 12.655 28.19 22.448 39.68a102.42 102.42 0 0 0 70.234 35.95c27.76 2.1 55.195-7.08 76.095-25.47 30.042-25.97 37.782-55.91 40.654-93.729" fill="#f41d2e"/><path d="M366.193 960.833c5.109-21.934 24.781-37.367 47.302-37.107 22.52.259 41.832 16.141 46.434 38.188 4.017 19.244-4.106 38.996-20.501 49.836-16.395 10.85-37.748 10.61-53.889-.62-16.14-11.22-23.806-31.15-19.346-50.297" fill="#564241"/><path d="M366.193 960.833c5.109-21.934 24.781-37.367 47.302-37.107 22.52.259 41.832 16.141 46.434 38.188-3.354-2.389-9.679-12.931-13.463-17.113-20.772-22.955-51.515-20.59-70.606 2.898-3.523 4.334-5.222 9.302-9.667 13.134" fill="#f41d2e"/><path d="m841.852 1000.74-.438-2.95c-5.386-37.601-.459-69.049 22.282-100.393 33.742-46.505 98.733-54.259 143.554-18.99 28.65 22.543 41.37 52.803 45.79 88.466 5.73 12.133 2.22 29.094.03 41.737-6.48 37.38-27.45 67.16-62.28 83.25a102.66 102.66 0 0 1-79.197 2.88c-28.469-10.72-49.441-33.44-61.79-60.83-2.918-6.47-12.031-26.9-7.951-33.17" fill="#fefefe"/><path d="M1053.04 966.873c5.73 12.133 2.22 29.094.03 41.737-6.48 37.38-27.45 67.16-62.28 83.25a102.66 102.66 0 0 1-79.197 2.88c-28.469-10.72-49.441-33.44-61.79-60.83-2.918-6.47-12.031-26.9-7.951-33.17 6.153 23.58 14.612 42.72 32.056 60.46a102.96 102.96 0 0 0 74.275 31.32 101.18 101.18 0 0 0 71.857-30.48c26.82-26.97 33.27-58.6 33-95.167" fill="#f41d2e"/><path d="M897.065 971.127a52.88 52.88 0 0 1 12.537-34.912c29.044-34.378 83.179-10.014 84.75 33.801 1.141 14.673-1.055 27.142-10.943 38.874a48.42 48.42 0 0 1-33.287 16.91c-32.217 2.44-54.738-23.61-53.057-54.673" fill="#564241"/><path d="M897.065 971.127a52.88 52.88 0 0 1 12.537-34.912c29.044-34.378 83.179-10.014 84.75 33.801-9.704-17.206-14.995-31.688-37.914-37.908a42.97 42.97 0 0 0-33.622 4.508c-16.332 9.929-17.967 21.107-25.751 34.511" fill="#f41d2e"/><path d="m1064.51 859.07 42.03-.263c30.02-.144 56.7-.225 80.03 22.556 18.98 18.525 24.6 42.191 24.77 67.893 1.89 2.147 3.04 3.15 2.63 6.709-3.72 31.612-9.76 43.225-32.15 63.305 3.9 8.13 32.24 64.68 31.69 68.74-.14 2.71 1.84 6.29 3 8.91-22.32.08-44.64.01-66.96-.23-1.97-7.02-21.97-44.35-26.45-51.89-.09 14.41.19 28.81.86 43.2.17 3.28.64 5.31-.92 8.15-6.48.5-53.36.91-57.82-.01-1.69-2.44-1.17-5.02-1.1-8.13-.08-76.03 1.11-153.12.39-228.94" fill="#fefefe"/><path d="M1122.8 1029.85c8.37 18.77 18.3 39.27 25.84 58.13 21.05 0 43.97-.45 64.87.03-.14 2.71 1.84 6.29 3 8.91-22.32.08-44.64.01-66.96-.23-1.97-7.02-21.97-44.35-26.45-51.89zm1.16 58.15c.17 3.28.64 5.31-.92 8.15-6.48.5-53.36.91-57.82-.01-1.69-2.44-1.17-5.02-1.1-8.13 18.84.02 41.26.58 59.84-.01m87.38-138.744c1.89 2.147 3.04 3.15 2.63 6.709-3.72 31.612-9.76 43.225-32.15 63.305l-4.11-7.45c2.28-1.78 4.5-3.62 6.68-5.52 18.15-15.99 25.34-33.221 26.95-57.044" fill="#f41d2e"/><path d="M1122.74 932.122c-.05-5.117-.88-4.609 1.49-7.981 12.61-5.238 27.63 3.988 29.74 17.191.89 22.848-12.81 23.041-31.04 22.66z" fill="#564241"/><path d="M1122.74 932.122c-.05-5.117-.88-4.609 1.49-7.981 12.61-5.238 27.63 3.988 29.74 17.191-11.14-8.852-17.56-9.368-31.23-9.21" fill="#f41d2e"/><path d="m1579.05 862.023 45.09.04c30.05.078 57.21-.905 80.25 22.18 19.45 19.489 21.75 45.484 21.68 71.53 3.18 5.225 1.09 17.81-.33 23.778-4.78 20.198-13.36 30.859-27.69 45.039 4.9 9.27 30.69 54.67 32.48 61.85-1.59.63-1.72.8-3.39 1.07 2.12 2.89 2.85 3.53 3.64 7.09l-.8 1.25c-10.02 1.02-53.44 2.11-63.72.85-2.82-2.31-3.2-5.07-4.35-8.64-2.4-6.9-4.82-12.99-7.6-19.76-8.29-5.98-5.86-13-16.33-18.7l.07 37.9c-.05 3.64 0 6.58-2.27 9.11-10.7 1.39-42.43.35-55.49.41l-1.32-9.59c-1.11-74.28.4-150.7.08-225.407" fill="#fefefe"/><path d="M1661.91 1088.06c21.68.01 43.58-.9 65.23-.55 2.12 2.89 2.85 3.53 3.64 7.09l-.8 1.25c-10.02 1.02-53.44 2.11-63.72.85-2.82-2.31-3.2-5.07-4.35-8.64m-82.94-.63c19.69.31 39.39.33 59.08.07-.05 3.64 0 6.58-2.27 9.11-10.7 1.39-42.43.35-55.49.41zm147.1-131.657c3.18 5.225 1.09 17.81-.33 23.778-4.78 20.198-13.36 30.859-27.69 45.039l-6.05-10.91c22.01-13.1 29.97-33.88 34.07-57.907" fill="#f41d2e"/><path d="M1637.98 1049.6c-.18-7.9-.41-15.81-.7-23.71 4.94 14.48 13.05 30.15 17.03 42.41-8.29-5.98-5.86-13-16.33-18.7" fill="#ad181c"/><path d="m1637.05 928.184.33-3.097c4.81-2.856 15.74-1.347 21.43-.889 7.63 5.118 9.6 7.271 11.24 16.295.47 23.512-15.71 21.053-33.16 20.683z" fill="#564241"/><path d="m1637.05 928.184.33-3.097c4.81-2.856 15.74-1.347 21.43-.889 7.63 5.118 9.6 7.271 11.24 16.295-12.07-7.553-13.78-3.964-27.47-6.773-3.42-.702-3.73-2.565-5.53-5.536" fill="#f41d2e"/><path d="M1416.99 859.771c11.84-.603 25.56-.591 37.39-.699 27.35-.249 58.02-1.729 79.85 17.524 23.02 20.304 25.67 42.01 27.84 70.377 3.97 6.293 1.95 23.923.26 31.077-3.61 15.264-13.17 36.51-28.57 42.88 10.83 21.73 22.01 43.29 33.52 64.66-.91 1.76-.23 1.14-2 1.9l-.3 1.54c-.45 2.45-.41 3.97-.45 6.46-1.81 1.93-58.77 1.51-62.48-.33-1.61-3.24-1.69-3.73-2.61-7.08-1.84-6.52-7.87-20.92-10.79-26.97-6.13-2.85-5.19-4.96-12.92-3.96.2 9.68.16 21.37.65 30.9-.02 3.17.34 5.25-1.34 7.88-9.93.87-46.62.62-56.65-.2-1.8-2.76-1.11-3.77-1.14-7.73z" fill="#fefefe"/><path d="M1499.44 1088.08c21.95-.01 43.9-.21 65.84-.59l-.3 1.54c-.45 2.45-.41 3.97-.45 6.46-1.81 1.93-58.77 1.51-62.48-.33-1.61-3.24-1.69-3.73-2.61-7.08m62.63-141.107c3.97 6.293 1.95 23.923.26 31.077-3.61 15.264-13.17 36.51-28.57 42.88l-4.49-7.8c25.24-16.023 30.62-38.304 32.8-66.157m-85.69 141.077c-.02 3.17.34 5.25-1.34 7.88-9.93.87-46.62.62-56.65-.2-1.8-2.76-1.11-3.77-1.14-7.73z" fill="#f41d2e"/><path d="M1475.73 1057.15c-.28-9.47-.48-18.95-.59-28.42 4.42 10.21 9.88 22.01 13.51 32.38-6.13-2.85-5.19-4.96-12.92-3.96" fill="#ad181c"/><path d="M1474.96 933.297c-.11-5.533-1.05-5.2 1.57-8.568 11.15-5.231 22.63 1.239 27.37 12.012 1.71 25.021-6.78 24.987-29.01 24.271z" fill="#564241"/><path d="M1474.96 933.297c-.11-5.533-1.05-5.2 1.57-8.568 11.15-5.231 22.63 1.239 27.37 12.012-10.57-3.04-18.04-2.7-28.94-3.444" fill="#f41d2e"/><path d="M531.991 858.825c11.984-.664 28.028-.028 40.384-.059 10.796-.026 29.756-.351 39.611.941a50.4 50.4 0 0 1 14.628 4.144c34.135 15.589 36.639 54.956 22.306 85.111 22.518 12.836 30.907 33.466 32.544 58.208 4.277 5.86 3.187 14.08 2.283 20.73-9.087 66.82-60.817 71.98-117.268 68.71-9.862-.57-22.671 1.11-33.309-.18-1.819-2.28-1.463-5.12-1.309-8.36 1.423-74.56.133-154.482.13-229.245" fill="#fefefe"/><path d="M681.464 1007.17c4.277 5.86 3.187 14.08 2.283 20.73-9.087 66.82-60.817 71.98-117.268 68.71-9.862-.57-22.671 1.11-33.309-.18-1.819-2.28-1.463-5.12-1.309-8.36l45.601.04c28.866-.01 58.469 1.26 81.098-20.03 17.898-16.84 22.096-37.5 22.904-60.91" fill="#f41d2e"/><path d="M588.953 994.409c.147-4.49-.599-3.647 1.763-6.161 11.538-4.374 23.733.711 27.697 12.742 6.581 20.6-16.384 21.26-29.45 20.97.548-8.2.101-19.14-.01-27.551" fill="#564241"/><path d="M588.953 994.409c.147-4.49-.599-3.647 1.763-6.161 11.538-4.374 23.733.711 27.697 12.742-3.23-1.344-5.084-3.185-7.937-4.538-5.97-2.831-14.786-1.991-21.523-2.043m-2.783-78.295q1.663.006 3.325.039c9.914.219 18.353 1.31 15.254 13.713-5.768.935-12.272.74-18.179.794-.381-4.626-.333-9.858-.4-14.546" fill="#f41d2e"/><path d="M693.329 858.807c45.155-1.112 94.438-.592 139.562.165 1.042 1.122 2.731 2.529 2.224 4.258-7.198 24.583-55.714 147.13-65.474 159.38 20.405-.14 40.812-.11 61.217.07-.043 20.85.445 44.64-.2 65.25.04 4.58.842 5.35-1.169 8.54-14.318 1.16-39.765.17-54.765.07l-100.104-.45c1.105-2.87 2.186-5.41 3.421-8.22 2.122-6.98 5.386-14.69 8.487-21.31 20.027-42.79 35.146-88.555 54.98-131.331-6.44 1.059-41.347 1.284-47.805.299-1.608-2.813-.902-5.082-.536-8.407z" fill="#fefefe"/><path d="m678.041 1087.87 152.617.06c.04 4.58.842 5.35-1.169 8.54-14.318 1.16-39.765.17-54.765.07l-100.104-.45c1.105-2.87 2.186-5.41 3.421-8.22m154.85-228.898c1.042 1.122 2.731 2.529 2.224 4.258-7.198 24.583-55.714 147.13-65.474 159.38-1.416-.35-.705-.02-2.029-1.19.697-3.45 14.07-34.816 16.634-41.172a6068 6068 0 0 0 48.645-121.276m-91.383 76.257c-6.44 1.059-41.347 1.284-47.805.299-1.608-2.813-.902-5.082-.536-8.407 17.32-.089 35.132.028 52.407-.41z" fill="#f41d2e"/><path d="M1297.99 858.79c10.21-.407 18.59-.611 28.88-.328l53.36 163.248c6.47 19.5 17 47.36 22.5 66.23.22 2.52.43 5.04.62 7.56-3.96 1.71-49.93.76-56.35.17-1.77-2.39-1.53-5.58-1.76-8.72l-1.76-7.85c-7.73-1.5-43.51-.42-54.16-.61-1.28 4.34-1.81 7.58-4.64 11.05-.74 3.47-.69 3.67-2.33 6.98-11.14 1.01-41.85.38-53.37-.16-1.91-2.07-1.78-5.46-2.12-8.49 2.05-12.65 17.84-56.48 22.75-71.73a5302 5302 0 0 0 48.38-157.35" fill="#fefefe"/><path d="M1289.06 1066.68c17.08.13 34.15.13 51.23.02l3.19 12.4c-7.73-1.5-43.51-.42-54.16-.61-1.28 4.34-1.81 7.58-4.64 11.05l-.83-1.78c1.28-6.37 3.6-14.63 5.21-21.08" fill="#f41d2e"/><path d="m1283.85 1087.76.83 1.78c-.74 3.47-.69 3.67-2.33 6.98-11.14 1.01-41.85.38-53.37-.16-1.91-2.07-1.78-5.46-2.12-8.49 17.5.3 39.77.88 56.99-.11m61.39-.81a950 950 0 0 0 57.49.99c.22 2.52.43 5.04.62 7.56-3.96 1.71-49.93.76-56.35.17-1.77-2.39-1.53-5.58-1.76-8.72m-31.12-97.533 5.56 16.963c1.29 3.88 2.01 3.73.91 6.75-4.26 2.46-11.02 3.04-13.54-1.53l.8-3.81c2-4.44 4.67-13.445 6.27-18.373" fill="#f41d2e"/><path d="M1307.85 1007.79c4.31.35 7.58-.58 11.83-1.41 1.29 3.88 2.01 3.73.91 6.75-4.26 2.46-11.02 3.04-13.54-1.53z" fill="#fc0b20"/><path d="M400.914 567.904c11.91 5.155 59.449 5.257 74.442 4.905 36.936-.595 73.83-2.793 110.576-6.588 162.293-18.152 322.869-67.81 480.878-105.528a2466 2466 0 0 1 157.56-32.084c66.22-11.397 131.84-17.927 199.03-18.988 20.78-.329 43.04 2.883 63.97 2.924 8.23 5.618 22.28 17.02 29.7 23.737 14.05 11.148 28.06 24.542 41.18 36.811a780 780 0 0 1 105.96 129.822c5.55 8.602 14.9 23.051 19.44 32.149-13.63-6.053-54.17-11.86-70.45-14.608-149.04-25.14-302.46-3.32-449.03 27.237-185.315 38.673-368.486 94.257-557.574 111.566-30.726 2.813-64.218 1-94.757.777-62.1-.453-126.411.983-185.932-18.971-6.039-2.024-13.371-4.304-19.579-5.479-5.102-1.069-14.322-4.134-19.057-6.275-2.098-1.755-22.526-8.708-26.376-9.167-8.468-2.704-19.089-6.567-26.913-10.64-2.098-1.532-14.153-7.094-16.901-8.226-15.016-6.184-29.164-15.897-43.614-22.613-5.354-2.093-10.824-6.13-15.527-9.464-3.51-3.45-4.974-4.061-9.334-6.575l-9.594-6.135c-2.513-2.414-18.108-11.518-21.981-13.811-18.824-11.142-39.873-28.319-53.237-45.634-.76-4.698 2.779-8.666 7.265-9.148 4.61 2.772 17.24 16.032 22.463 20.424 9.752 8.204 22.342 16.559 30.787 25.484-5.74-23.526-9.308-48.966-13.583-72.883-.306-1.711.569-3.893 1.259-5.411 3.152-2.677 1.431-2.024 5.098-2.568 12.462 7.305 11.631 72.069 27.894 88.011 4.369-17.772 27.19-63.366 36.728-79.186-.409-2.931-16.7-19.016-19.778-22.295-19.736-21.022-42.223-51.069-54.329-77.22 3.686-3.241 5.498-4.287 9.733-6.913 23.823 17.186 49.952 30.849 75.223 45.757 6.276 3.702 14.118 8.58 20.797 11.27 4.642 2.191 5.784 2.699 9.718 5.928 3.306 2.548 6.69 5.068 10.844 6.067a729 729 0 0 1 16.168 6.256c6.75 3.615 63.296 24.601 67.738 23.833 6.205 1.149 26.744 4.817 32.007 6.508 5.881 2.292 23.666 4.794 29.965 4.743 6.369.445 14.844 1.027 21.123 2.201" fill="#ad181c"/><path d="M1433.98 432.794c21.99 1.176 62.43 4.454 83.09 3.488 14.05 11.148 28.06 24.542 41.18 36.811-2.58 6.036-2.75 11.916 1.59 17.238 21.64 26.571 43.16 52.526 61.89 81.373 7.3 11.253 15.57 23.284 23.77 33.856-33.85-10.956-120.17-17.461-156.85-17.472-17.53-50.42-39.13-104.868-54.67-155.294" fill="#564241"/><path d="M181.705 561.769c3.443 3.711 5.415 4.994 10.143 7.043 2.932 1.28 7.611 3.046 10.046 4.835 9.97 5.774 28.56 17.79 38.275 20.997 1.878 9.677 3.938 15.964 7.641 25.194-11.457-2.184-24.679-18.423-39.037-8.016-12.964 9.397-22.539 36.149-28.885 50.631-3.959-2.77-12.249-7.319-16.791-10.087-2.739-.962-7.794-4.797-10.095-6.606l-8.025-4.805c4.369-17.772 27.19-63.366 36.728-79.186" fill="#fefefe"/><path d="M181.705 561.769c3.443 3.711 5.415 4.994 10.143 7.043 2.932 1.28 7.611 3.046 10.046 4.835-13.177 24.093-26.809 53.761-38.797 78.719-2.739-.962-7.794-4.797-10.095-6.606l-8.025-4.805c4.369-17.772 27.19-63.366 36.728-79.186" fill="#525251"/><path d="M181.705 561.769c3.443 3.711 5.415 4.994 10.143 7.043a873 873 0 0 0-21.888 41.603c-2.373 4.918-15.049 32.805-16.958 35.345l-8.025-4.805c4.369-17.772 27.19-63.366 36.728-79.186" fill="#fefefe"/><path d="M179.888 662.453c6.346-14.482 15.921-41.234 28.885-50.631 14.358-10.407 27.58 5.832 39.037 8.016 2.307 5.082 11.536 24.572 12.563 28.907-5.244 7.56-16.99 35.683-19.904 44.876-5.201-1.254-55.802-27.649-60.581-31.168" fill="#525251"/><path d="M240.469 693.621c2.914-9.193 14.66-37.316 19.904-44.876 2.914 5.893 14.778 31.986 16.97 35.304-2.726 5.002-8.4 14.57-10.545 19.296-8.857-2.876-17.628-6.378-26.329-9.724" fill="#fefefe"/><path d="M277.343 684.049c4.358 4.694 8.778 18.783 12.187 25.641-6.261-1.502-17.282-3.861-22.732-6.345 2.145-4.726 7.819-14.294 10.545-19.296" fill="#525251"/><path d="M1390.8 433.426c3.11-.356 8.13-.356 11.41-.463 6.5 24.348 18.05 54.747 26.62 79.124 7.94 22.572 17.98 54.87 27.79 75.629-57.1 1.108-97.94 6.236-153.86 12.595l-13.06 1.701c-5.38-21.263-17.35-52.283-24.74-73.835-7.21-21.029-19.24-60.348-28.49-79.166 19.58-2.131 40.88-6.232 61.02-8.71 31.93-3.927 61.37-4.982 93.31-6.875m-187.12 19.904c2.88 3.432 48.76 139.213 54.03 154.176-16.47 1.516-50.19 8.957-67.83 12.634-28.13 5.863-61.44 11.416-88.79 18.461-2.72-12.557-15.75-43.987-21.16-58.116a3185 3185 0 0 1-33.46-91.932c5.43-.936 11.6-2.636 16.98-4.004 46.46-11.833 93.7-19.663 140.23-31.219M304.32 569.41c10.041 3.698 22.009 6.776 32.443 9.186 9.141.749 20.462 2.005 29.207 4.756a605 605 0 0 0 21.987 3.631c15.883 1.334 31.398 4.563 47.028 5.008 18.106 48.185 42.099 99.6 58.217 147.84-26.507-.229-163.442-7.231-177.378-23.358-.696-.805-.825-1.352-1.165-2.269-3.913-7.859-7.302-15.615-11.52-23.37-3.536-2.808-13.079-24.134-14.428-28.973-5.695-11.847-11.726-24.484-17.932-36.045 8.939-18.058 23.284-38.254 33.541-56.406" fill="#564241"/><path d="M304.32 569.41c10.041 3.698 22.009 6.776 32.443 9.186 9.141.749 20.462 2.005 29.207 4.756-15.431 19.465-32.506 51.619-44.973 73.498-4.867 8.543-14.209 25.52-17.858 33.984-3.536-2.808-13.079-24.134-14.428-28.973-5.695-11.847-11.726-24.484-17.932-36.045 8.939-18.058 23.284-38.254 33.541-56.406" fill="#525251"/><path d="M304.32 569.41c10.041 3.698 22.009 6.776 32.443 9.186-13.529 24.022-29.028 46.851-41.538 71.488-1.903 3.748-4.256 8.263-6.514 11.777-5.695-11.847-11.726-24.484-17.932-36.045 8.939-18.058 23.284-38.254 33.541-56.406m61.65 13.942a605 605 0 0 0 21.987 3.631c-23.278 37.566-47.382 73.386-66.172 113.588-2.013 4.307-4.678 9.597-7.126 13.633-3.913-7.859-7.302-15.615-11.52-23.37 3.649-8.464 12.991-25.441 17.858-33.984 12.467-21.879 29.542-54.033 44.973-73.498" fill="#fefefe"/><path d="m1009.48 498.149 2.35.203c3.47 3.116 49.08 130.215 56.48 149.052-7.59 1.275-16.94 3.536-24.48 5.498-42.13 10.963-88.086 17.358-129.562 29.791-.989.115-.248.083-2.144-.597-8.526-17.232-16.393-38.367-23.385-56.476a8696 8696 0 0 1-33.214-88.058c17.285-3.326 39.71-10.25 57.142-14.849a6383 6383 0 0 1 96.813-24.564m-188.438 47.147c2.949 1.858 50.918 128.983 57.61 145.333-6.561.983-12.786 2.406-19.223 3.968-45.284 10.986-91.028 19.814-137.14 26.733-3.066-3.878-21.135-52.481-23.951-59.678-10.901-27.854-22.718-56.476-33.364-84.457 15.37-1.951 33.621-6.075 49.041-9.088a3216 3216 0 0 0 107.027-22.811m-192.8 37.145 1.514-.248 1.712.941c18.082 41.055 41.584 106.015 59.492 144.473-15.155.614-41.215 5.51-57.632 7.409-35.68 4.128-64.75 5.045-100.577 4.656l-3.084-.215c-1.213-1.192-1.693-1.638-2.333-3.305-18.482-48.169-36.585-96.068-56.94-143.5 40.979 5.932 116.544-5.177 157.848-10.211" fill="#564241"/><path d="M199.772 525.315c2.905 2.032 7.733 5.642 10.745 7.08 5.014.939 8.611 2.834 13.269 4.89 6.887 3.701 11.353 6.01 18.563 8.906 18.864 5.749 39.634 16.436 61.971 23.219-10.257 18.152-24.602 38.348-33.541 56.406-12.674-15.072-13.192-54.342-38.703-49.098-2.362-.861-18.904-11.495-23.941-14.081-5.146-2.381-7.327-3.491-12.153-6.54-3.413-2.439-6.818-4.384-9.106-7.807 4.217-8.109 8.226-15.109 12.896-22.975" fill="#525251"/><path d="M199.772 525.315c2.905 2.032 7.733 5.642 10.745 7.08 5.014.939 8.611 2.834 13.269 4.89-6.08 9.026-10.459 15.672-15.651 25.352-5.146-2.381-7.327-3.491-12.153-6.54-3.413-2.439-6.818-4.384-9.106-7.807 4.217-8.109 8.226-15.109 12.896-22.975" fill="#525251"/><path d="M199.772 525.315c2.905 2.032 7.733 5.642 10.745 7.08-4.019 6.756-10.072 17.653-14.535 23.702-3.413-2.439-6.818-4.384-9.106-7.807 4.217-8.109 8.226-15.109 12.896-22.975m24.014 11.97c6.887 3.701 11.353 6.01 18.563 8.906l-9.961 17.724c.027 3.368.285 9.745-.312 12.803-2.362-.861-18.904-11.495-23.941-14.081 5.192-9.68 9.571-16.326 15.651-25.352" fill="#fefefe"/><path d="M132.874 481.291a2303 2303 0 0 1 66.898 44.024c-4.67 7.866-8.679 14.866-12.896 22.975-4.445-8.429-19.11-22.37-25.572-30.679-9.382-12.065-18.585-24.703-28.43-36.32" fill="#525251"/><path d="M400.914 567.904c6.766-7.283 17.37-22.312 24.336-30.79 126.795-154.305 309.229-254.219 507.274-276.511 193.756-21.81 402.356 28.997 554.846 151.942-20.93-.041-43.19-3.253-63.97-2.924-67.19 1.061-132.81 7.591-199.03 18.988a2466 2466 0 0 0-157.56 32.084c-158.009 37.718-318.585 87.376-480.878 105.528a1277 1277 0 0 1-110.576 6.588c-14.993.352-62.532.25-74.442-4.905m-140.019 152.24c3.85.459 24.278 7.412 26.376 9.167-63.28 149.511-70.18 329.509-30.908 486.129 51.068 202.42 179.82 376.59 358.372 484.78 25.095 15 53.453 31.08 80.099 43.19 166.509 73.66 353.036 88.85 529.266 43.07 146.75-37.05 291.13-123.79 390.04-238.9 41.76-48.59 65.53-85.9 97.66-139.81 8.41 2.64 16.8 5.33 25.17 8.06-9.75 19.35-27.94 47.83-39.85 65.79A794.5 794.5 0 0 1 1367 1763.77c-187.12 87.59-428.064 99.49-622.231 29.13a808.4 808.4 0 0 1-368.002-268.56c-35.857-45.95-65.206-91.19-90.032-144.29a885 885 0 0 1-61.75-174.4c-25.489-108.36-27.407-233.441-6.11-342.687 10.69-54.838 23.401-91.323 42.02-142.819" fill="#564241"/><path d="M349.826 560.96c120.702-176.751 306.8-298.183 517.194-337.477 211.41-41.184 430.52 2.876 609.58 122.574 180.59 120.511 304.56 309.135 343.53 522.714a813.5 813.5 0 0 1-8.98 358.489l-25.05-8.96c13.3-65.56 23.97-123.51 23.89-191.31-.19-148.43-47.79-311.168-129.72-434.776-115.82-177.887-298.53-301.505-506.73-342.847-203.888-39.464-415.123 2.301-588.649 116.385a814 814 0 0 0-184.44 169.659c-4.189 5.314-19.493 24.942-20.66 30.292-6.299.051-24.084-2.451-29.965-4.743" fill="#564241"/><path d="M148.606 662.626c4.36 2.514 5.824 3.125 9.334 6.575a937.1 937.1 0 0 0-62.636 467.829c31.77 249.23 162.148 475.32 361.951 627.66 193.95 147.02 437.827 212.11 679.245 181.29a916.9 916.9 0 0 0 539.99-263.03c50.5-50.91 92.67-103.85 133.41-162.94 11.39-16.5 21.36-41.04 33.2-55.54 3.12.74 8.47 1.3 9.42 4.6-5.56 11.16-12.47 21.69-18.59 32.55-30.08 53.34-68.97 101.2-109.13 147.42-88.74 102.14-200.44 182.57-324.61 236.49a965.08 965.08 0 0 1-610.774 49.88c-39.686-9.62-78.116-20.64-116.133-35.7-232.465-92.12-418.856-272.75-518.226-502.21a945.4 945.4 0 0 1-57.256-575.258c13.509-60.801 28.178-102.606 50.805-159.616m74.463-144.33c26.416-37.538 48.31-69.101 78.472-103.864A942.98 942.98 0 0 1 852.802 99.169C1102.35 53.48 1359.77 110.362 1566.84 256.94c202.58 143.06 340.11 360.67 382.38 605.045 23.59 136.656 17.54 293.304-23.6 426.324l-9.47-5.85c15.08-58.93 27.45-118.81 32.5-180.03 15.3-185.345-24.8-376.853-118.07-538.183-24.77-42.844-66.38-103.688-97.93-141.158a939.9 939.9 0 0 0-475.51-298.537c-240.61-62.708-496.295-26.9-710.422 99.494a953.1 953.1 0 0 0-312.805 300.317c-4.154-.999-7.538-3.519-10.844-6.067" fill="#525251"/><path d="M250.081 530.619c12.602-18.132 47.125-75.043 68.902-78.443 10.01-1.563 18.829 2.938 26.498 8.866 6.831 5.28 15.362 11.742 16.431 20.99 1.616 13.979-35.077 57.586-44.093 72.42-4.442.768-60.988-20.218-67.738-23.833m-76.614 148.046c14.45 6.716 28.598 16.429 43.614 22.613 2.748 1.132 14.803 6.694 16.901 8.226-3.947 9.346-15.222 48.405-25.238 52.558-19.484 8.077-59.256-2.541-53.226-30.609 3.594-16.728 11.324-35.483 17.949-52.788" fill="#525251"/><path d="M1435.14 1374.44c12.46-1.01 30.04-.59 42.93-.76 58.58-.79 117.99 3.57 175.1 17.13 12.55 2.97 26.26 5.84 38.5 10-71.2 126.48-155.85 213.69-282.3 287.44-177.17 101.38-386.91 129.61-584.582 78.68-113.289-29.74-192.717-72.78-284.014-144.11 82.939-17.02 177.26-55.77 257.554-85.24a4860 4860 0 0 1 267.602-90.97c120.83-36.73 242.38-67.17 369.21-72.17" fill="#564241"/><path d="M1333.6 1474.54c2.47 1.78 24.97 55.89 30.58 65.39 23.96 4.84 48.61 7.5 72.43 12.52-17.86 14.9-36.73 35.13-54.6 51.23 2.83 15.61 9.1 62.54 13.46 74.35-20.55-12.53-41-25.2-61.35-38.03-21.11 12.65-44.03 24.58-65.58 37.03 5.23-18.77 11.27-55.42 13.84-75.12-10.69-13.73-38.54-40.3-51.95-53.63 16.19-2.76 57.19-8.41 72.71-8.48 10.39-21.37 20.49-43.67 30.46-65.26" fill="#ad181c"/><path d="M1389.77 1203.41c3.31-.46 4.38-.85 7.62.13 4.03 9.99 10.98 38.69 14.09 50.06 9.1 32.29 17.98 64.63 26.64 97.04-45.81.74-108.54 9.65-154.09 16.39a7687 7687 0 0 1-51.67-137.85 1273 1273 0 0 1 157.41-25.77m89.87-5.95c42.28-1.71 87.15 1.26 129.15 6.13.61 14 2.95 33.01 4.27 47.48l10.65 110.13c-9.79-2.48-20.9-4.13-30.94-5.22a856 856 0 0 0-111.75-6.97c-12.51-49.47-28.71-100.59-40.9-150.16zm-293.16 41.68 1.1-.05c4.1 2.4 23.09 54.98 26.04 62.67 9.43 24.6 20.37 49.62 29.14 74.4-23.84 5.84-49.01 10.26-73.11 16.32-24.92 6.26-49.29 13.15-74.1 19.6-2.94-1.17-2.51-1.97-4.5-5.54-7.4-12.88-15.35-29.26-22.39-42.63l-41.82-80.06a2643 2643 0 0 1 159.64-44.71m-202.375 56.99c3.103 3.13 17.255 31.4 20.895 38.12 16.44 29.78 32.63 59.69 48.58 89.73-33.78 12.22-109.185 37.23-145.863 47.76-.947.27-1.916-1.94-2.786-3.28-24.144-40.4-52.273-79.86-76.502-120.06 51.197-16.17 104.141-35.33 155.676-52.27m-200.202 66.89 1.328.18c2.023 1.73 77.292 115.39 81.763 123.9-16.18 5.96-127.09 49.05-138.303 49.63l-1.88-2.26a3868 3868 0 0 0-89.823-119.62c13.638-5.79 42.085-14.15 56.823-19.14a3313 3313 0 0 0 90.092-32.69M589.256 1430c1.151-.29.329-.15 2.504.11 30.196 40.22 67.047 81.6 95.927 122.79a1443 1443 0 0 1-77.798 27.01c-10.996 3.47-23.26 7.39-34.601 9.65-4.246.85-4.366.11-7.183-1.94-31.944-39.84-70.194-86.57-104.041-124.56 36.503-7.71 90.344-21.47 125.192-33.06m1062.414-221.37c38.59 6.94 71.13 13.42 108.4 25.66a837 837 0 0 1-38.11 105.27c-5.77 12.64-12.42 25.73-18.56 38.26-12.76-3.02-25.49-6.12-38.21-9.31-2.48-16.9-3.9-40.89-5.33-58.25-2.54-33.89-5.27-67.77-8.19-101.63" fill="#564241"/><path d="M371.936 1589.15c4.054-.19 13.331-.44 16.765 1.92 10.639 7.29 19.453 17.9 28.724 27 7.998 9.54 19.443 17.46 27.412 26.68 11.407 13.21 43.818 33.34 48.33 49.13 5.448 19.06-8.526 41.21-28.138 45.56-4.59-.16-8.964-.1-13.152-2.25-20.242-10.35-104.721-87.95-109.998-106.61-2.183-7.71-.468-15.67 3.482-22.52 6.049-10.48 15.073-16.11 26.575-18.91m1284.554 2.11c5.64-.37 9.71-.57 15.15 1.27 10.19 3.44 18 11.38 22.55 20.78 2.93 6.04 3.9 17.08.68 22.42-14.69 24.3-88.27 94.99-111.54 103.24-7.78 1.5-16.82 1.05-22.95-4.76-10.07-9.55-24.68-33.47-12.01-45.7 18.02-17.39 37.55-33.25 55.91-50.63 9.59-9.17 18.99-18.54 28.19-28.1 8.57-8.84 11.91-15.06 24.02-18.52m-87.75-1281.997c5.64-.268 10.84-.426 16.33 1.282 21.6 6.722 102.52 83.417 112.39 103.96 3.01 6.257 2.91 13.556.42 19.969-4 10.344-12.34 17.526-22.16 22.079-6.34 1.597-18.55 2.77-23.86-1.894-17.17-15.048-32.24-32.181-48.84-47.975-17.55-16.693-36.97-30.849-53.94-47.964-13.53-14.306 4.31-42.661 19.66-49.457m-1113.547 1.833c17.417-1.423 24.694 4.033 34.337 18.133 5.541 8.101 7.825 16.134 5.673 25.811-5.564 7.39-12.052 13.951-19.16 19.78-26.67 21.874-50.894 45.582-74.957 70.184-3.908 3.995-12.385 7.397-17.716 9.482-2.685.338-5.275.656-7.984-.099-11.209-3.125-23.339-14.383-29.3-24.154-2.352-3.856-4.163-11.01-2.319-14.576 12.76-24.675 90.007-94.43 111.426-104.561m70.069 1409.174c16.265 1.47 39.619 19.8 54.805 28.48 22.127 12.65 46.517 23.63 66.953 38.5 12.674 9.22 6.162 34.29-1.241 45.27-5.416 8.17-12.023 11.35-21.445 13.01-16.651-2.98-35.973-15.71-50.837-23.82-16.144-8.81-73.741-39.35-78.027-55.67-2.139-8.14-.576-18.75 3.705-25.99 5.89-9.95 14.836-17.03 26.087-19.78m1250.798-281.05c5.61.32 8.57 1.18 13.7 3.05 22.61 8.21 36.15 15.87 21.83 40.86-14.23 24.82-30.91 48.11-47.58 71.4-8.11 11.33-16.9 22.94-26.47 33.03-2.89 3.05-9.31 5.11-13.21 6.31-10.33.46-13.61-.66-22.86-5.56-9.31-4.94-23.11-22.88-16.64-33.83 9.79-16.56 22.51-33.2 33.39-49.35 11.68-17.33 22.94-35.14 34.04-52.89 5.99-9.48 13.37-11.11 23.8-13.02M800.53 139.266c13.787-.037 24.79 7.626 27.524 21.682 3.062 15.735 5.457 35.494-13.681 41.412-20.427 6.316-41.074 11.831-61.426 18.423-20.105 5.717-40.915 15.785-60.848 20.523-4.303-.662-8.938-1.775-12.73-3.978-8.236-4.783-14.666-17.829-16.7-26.836-1.71-7.57-1.575-15.631 2.872-22.274 11.466-17.128 110.864-44.85 134.989-48.952m607.98 64.953c10.28-1.409 20.82 3.124 29.91 8.18 33.72 19.073 71.78 37.586 101.7 62.091 16.1 13.181-1.01 45.864-20.37 51.447-14.16 1.628-20.55-3.583-31.93-10.888-30.23-19.41-62.09-35.392-93.55-52.558-16.59-9.05-13-28.076-5.92-42.402 5.2-10.465 9.95-12.457 20.16-15.87m101.21 1515.931c5.25-.33 10.3-.53 15.08 2.23 7.79 4.48 16.14 22.54 18.91 30.68 1.63 4.79.33 14.97-2.42 18.3-15.56 18.83-100.58 67.3-121.26 71.58-20.46-2.21-27.4-9.73-33.32-29.42-4.04-13.44-.4-23.7 11.84-30.7 20.16-11.54 41.05-22.3 60.9-34.41 13.55-7.71 36.08-25.01 50.27-28.26M617.592 206.175c8.049-.473 17.698 1.612 23.14 8.913 7.764 11.111 18.394 37.346 5.138 47.472-8.051 5.914-17.181 10.534-25.99 15.199-28.097 14.88-54.949 31.912-81.801 48.887-2.898 1.831-6.161 2.676-9.465 3.438-3.8-.476-7.252-1.073-10.677-2.877-9.145-4.818-19.278-17.947-22.277-27.769-2.047-6.706-1.487-13.687 1.883-19.87 9.296-17.053 98.837-66.754 120.049-73.393M1717.64 454.274c5.03-.049 9.88.458 14.46 2.749 17.67 8.848 70.77 87.412 76.93 107.817 2.25 7.453.82 16.3-3.05 22.968-6.24 10.735-17.32 16.03-28.74 19.378-13.19-.808-18.26-1.612-26.01-12.868-11.53-16.605-22.1-33.898-33.57-50.544-3.99-6.153-8.71-11.944-12.85-17.92-5.41-7.791-20.25-25.491-21.47-34.646-2.33-17.459 18.04-34.207 34.3-36.934M265.347 1443.24c8.186-.32 18.701 1.36 23.731 9.36 21.52 34.22 47.134 66.91 67.429 101.69 2.356 4.04-2.256 16.6-5.056 20.46-7.542 10.39-16.405 16.46-29.027 19.21-5.245.02-11.06-.05-15.751-2.72-12.757-7.28-73.549-97.37-76.598-111.58-1.452-6.76 1.248-14.63 5.255-20.05 7.278-9.85 18.361-14.35 30.017-16.37m422.002 367.99c2.784-.31 9.581-1.08 12.093-.28 19.182 6.07 38.231 12.7 57.396 18.98 19.414 6.75 39.587 10.46 58.763 17.85 17.541 6.75 15.494 35.65 8.548 49.44-3.695 7.33-9.536 9.83-16.966 12.06-15.162.09-38.26-6.59-53.125-11.47-26.29-8.61-54.503-17.15-79.199-29.48-13.539-6.75-12.158-24.63-8.032-36.67 3.632-10.63 10.906-15.71 20.522-20.43m656.611-3.04c5.8-.63 10.97.48 15.79 3.86 8.24 5.78 13.24 20.27 14.92 29.98 1.1 6.34.72 14.47-3.35 19.8-12.11 15.85-104.68 42.25-128.08 46.2-37.4 1.75-38.05-53.32-20.01-60.5 27.9-11.1 64.91-18.41 93.74-30.34 6.81-2.81 20-7.45 26.99-9M1051.7 113.195c35.86-2.216 96.22 4.933 130.5 14.739 15.31 4.38 19.76 51.312-9.63 59.466-6.79.689-14.91.017-21.7-.836-31.65-4.058-63.51-6.1-95.26-8.703-14.13-1.816-24.35-6.474-25.89-22.069-2.08-21.262-.7-36.213 21.98-42.597m185.88 26.087c30.88.298 86.86 24.351 116.72 35.185 24.46 8.872 21.56 30.022 11.4 49.319-4.2 7.978-10.22 10.308-18.7 12.642-17.73 1.126-57.18-16.243-75.75-21.264-16.37-4.427-36.3-9.965-51.54-17.112-3.64-1.711-7.76-10.475-8.16-14.439-1.45-20.147 4.86-40.183 26.03-44.331M867.092 1860.17c8.193-.8 122.16 9.61 129.087 11.85 5.411 1.75 9.751 7.43 12.031 12.41 5.09 11.16 4.06 24.18-.48 35.31-3.34 8.21-8.775 11.5-16.665 14.83-28.212 2.87-97.426-6.4-126.991-12.96-6.521-1.58-11.626-4.91-14.461-11.07-3.61-7.85-3.086-14.9-1.941-23.23 1.849-13.46 7.128-21.38 19.42-27.14m297.328-.79c5.96-.78 12.38.42 17.19 4.16 8.24 6.42 11.63 16.67 12.53 26.74.75 8.51.03 18.55-6.01 25.18-13.85 15.18-103.09 18.04-126.46 19.32-16.86.46-27.26-4.38-30.53-22.34-2.62-14.4.04-37.18 17.39-40.66 15.78-3.17 33.11-3.5 49.31-4.86 22.26-1.93 44.46-4.44 66.58-7.54M966.63 114.439c11.909-.624 20.325-2.191 31.656 4.422 16.284 9.502 15.004 51.508-3.436 57.196-10.992 3.391-31.879 4.142-44.509 5.252a1205 1205 0 0 0-60.545 6.658l-2.776.434c-43.457 6.611-47.47-40.036-34.687-54.109 14.184-15.615 90.369-18.743 114.297-19.853M151.147 775.142c15.349-1.714 39.791 4.628 46.161 20.1 4.998 12.139 1.154 24.304-1.668 36.408-5.008 19.125-8.211 38.207-11.561 57.644-3.231 18.751-1.425 32.933-20.845 40.922-9.298 1.583-19.688 2.023-28.86-.397-6.659-1.757-13.035-5.375-16.462-11.563-9.26-16.727 10.058-96.379 15.081-115.824 3.296-12.76 6.287-20.358 18.154-27.29M1815.92 612.234c6.69.084 12.9 1.279 18.49 5.121 13.78 9.48 47.67 96.012 50.97 114.941 1.15 6.613-1.15 12.766-5.07 18.104-7.28 9.912-18.22 14.04-29.86 16.091-17.77.953-23.66-6.934-29.4-22.442-12.21-32.985-28.96-65.141-40.77-98.085-1.43-3.978 2.61-13.292 5.1-16.788 6.44-9.06 19.66-15.177 30.54-16.942M145.666 1119.37c10.511-1.82 28.758-.91 32.609 11.39 4.684 14.96 6.092 31.06 9.374 46.47 4.785 22.47 10.2 44.76 14.942 67.24-5.584 16.94-11.965 22.48-29.266 27.27-23.993 3.93-34.359-6.65-39.893-28.92-6.25-25.16-11.897-50.22-15.829-75.91-2.266-14.8-5.753-29.74 6.987-41.36 5.03-4.46 14.674-5.4 21.076-6.18m45.801 164.92c1.784-.02 3.568.06 5.342.26 6.314.67 16.417 5.86 19.001 10.94 8.915 18.8 14.969 37.08 22.728 56.65 4.555 11.48 22.433 44.08 21.853 55.41-.883 17.24-18.546 27.69-35.14 30.16-5.834.13-12.266-.95-17.154-4.31-14.136-9.72-48.582-97.45-52.298-116.51-1.213-6.22 1.358-13.16 5.005-18.19 7.014-9.68 19.43-12.91 30.663-14.41m1652.993-10.4c17.24-.52 45.53 25.55 40.14 42.22-12.47 38.6-30.43 79.97-47.19 116.61l-11.38-4.74-40.87-17.51c-1.48-3.36-2.76-8.11-3.86-11.7 5.14-24.16 24.04-56.04 31.62-80.76 6.2-20.2 11.71-34.05 31.54-44.12M128.28 948.186c21.354-1.936 44.762 1.318 44.833 27.834.086 32.65-.023 65.33.618 97.97.329 16.77-7.575 21.86-22.22 26.73-8.565.76-16.834 1.14-25.058-1.99-5.663-2.15-13.202-7.44-15.589-13.22-6.448-15.62-7.499-109.53-.295-124.102 3.571-7.225 10.465-10.649 17.711-13.222m1747.9-170.087c24.13-3.972 34.08 28.49 35.84 46.617 3.79 38.949 37.87 97.696-18.27 108.44-10.87.208-26.8-3.339-29.92-15.793-4.57-18.239-6.99-37.288-11.15-55.737-3.89-17.301-8.28-34.628-11.5-52.017-.57-3.249 2.41-11.821 4.2-14.906 6.3-10.892 19.47-13.392 30.8-16.604m21.52 171.216c7.99-1.146 16.54-.737 23.37 3.996 7.56 5.237 9.88 11.954 11.14 20.629 2.84 19.509 5.51 102.23-5.44 116.35-5.54 7.14-13.58 10.07-22.24 11.23-17.94-.43-34.6-2.17-37.08-23.96-.6-15.67-2.04-34.95-.4-50.49 3.66-34.675-15.12-71.008 30.65-77.755m-15.2 169.815c8.37-.34 16.67-.04 24.59 3.03 6.92 2.68 13.38 7.8 16.06 14.92 7.62 20.19-14.71 110.89-24.24 132.66l-8.34-3.74c-15.75-7.37-52.8-18.83-47.86-40.2 7.06-30.57 11.16-62.35 18.98-92.54 1.6-6.19 15.13-12.51 20.81-14.13m45.34 196.12c11.98 6.83 22.88 12.93 33.62 21.69a481 481 0 0 0-34.05 13.03c10.48 48.62 24.33 102.95 32.45 151.53l-12.32-7.45c-22.81-14.39-49.86-28.59-73.61-42.79 2-5.33 4.95-11.02 7.34-16.25 17.73-38.86 35.2-78.47 46.57-119.76m-148.06-75.56c8.03 3.29 16.01 6.71 23.92 10.26-7.45 32.6-38.6 114.47-55.98 142.31l-25.2-8.37c18.21-31.96 46.63-107.03 57.26-144.2" fill="#525251"/><path d="M420.856 1475.74c4.817 4.29 30.651 36.45 35.828 42.7a7576 7576 0 0 1 49.251 60.08c7.644 9.37 19.752 23.06 25.697 32.69-6.11-3.29-13.358-9.62-18.488-14.31-27.24-24.93-56.653-50.14-78.268-80.29-6.159-8.59-12.421-30.58-14.02-40.87" fill="#564241"/><path d="M1909.15 1305.14c3.61.88 5.71 1.32 8.31 3.96 3.16 10.84-45.77 121.92-53.56 137.39l-9.06-5.79c2.2-6.18 5.63-13.54 8.46-19.54 17.86-37.85 31.69-76.65 45.85-116.02" fill="#525251"/></svg>