<svg xmlns="http://www.w3.org/2000/svg" style="display:block" viewBox="0 0 2048 2048" width="1024" height="1024"><path fill="#010101" d="M998.887 71.455c46.293-.99 92.433 2.731 138.403 7.878 15.13 1.695 31.23 2.617 46.01 6.154 16.76 4.007 33.6 13.512 49.02 21.076 88.87 43.608 168.72 112.427 221.19 196.676 50.79 81.538 72.51 173.531 69.99 269.138a485.5 485.5 0 0 1-11.61 96.976 469.35 469.35 0 0 1-101.09 199.633c-76.05 89.19-173.59 136.504-286.24 162.034-34.61 7.85-69.96 12.42-104.59 20.21-57.872 13.02-117.437 38.55-167.697 70-99.446 62.23-172.758 159.86-199.283 274.66 10.678-5.74 18.659-7 30.535-6.77 3.422-16.69 8.918-33.25 15.199-49.08 55.131-138.9 185.962-237.16 328.316-273.57 27.54-7.04 56.19-10.69 84.1-16.12 46.33-9.01 92.56-22.32 135.89-41.16 129.06-56.112 220.84-147.952 272.45-279.275 46.92-119.399 42.14-265.318-14.07-380.81-27.96-57.434-68.94-109.085-116.37-151.672a525 525 0 0 0-71.76-53.549c-12.47-7.636-26.26-13.892-38.18-22.288-2.36-1.661-6.29-4.728-7.06-7.709-.65-2.534-.55-4.171 1.15-6.243 2.06-2.507 5.76-2.62 8.69-2.23 23.26 3.098 73.3 23.816 95.5 33.001a978.6 978.6 0 0 1 407.76 311.911c151.37 197.898 219.69 446.977 190.49 694.414-15.62 135.81-69.52 279.81-143.71 394.65a1025 1025 0 0 1-81.53 109.08c-126.68 150.05-278.34 245.14-465.82 301.33-30.59 9.17-61.47 18.13-92.74 24.71-20.84 4.38-42.29 2.38-63.3.29-85.12-8.46-172.564-37.42-244.234-84.49-68.844-45.22-128.594-106.08-166.383-179.79-7.041-13.73-15.331-29.48-18.452-44.57-10.414 3.67-17.883 4.99-28.981 4.79a405 405 0 0 0 5.425 12.7 498.1 498.1 0 0 0 255.915 254.87 726 726 0 0 0 63.267 24.33c10.233 3.4 22.283 5.81 31.983 10.29 2.01.93 3.94 2.67 4.35 4.95.25 1.41.05 2.9-1.01 3.89-3.05 2.82-8.52 3.19-12.47 3.3-34.936 1-71.546-2.83-106.254-6.64a953.77 953.77 0 0 1-548.705-251.46c-185.552-174.15-294.678-414.63-303.56-668.96-7.175-250.29 84.078-493.419 254.166-677.181 189.096-203.483 408.467-299.042 685.3-309.374"/><path fill="#E0F3BA" d="M987.094 83.44c51.976-1.134 102.656 2.133 154.256 8.111 15.21 1.763 31.94 2.447 46.52 7.2 9.5 3.096 18.81 8.165 27.77 12.585a647 647 0 0 1 76.92 43.923c105.72 71.006 185.01 178.61 209.71 304.664 24.47 124.901 1.42 254.844-69.91 360.68-66.6 98.806-167.93 160.979-281.71 191.437-35.24 9.43-71.37 15.01-107.15 21.97-134.574 26.18-260.888 97.16-338.483 212.35a447.1 447.1 0 0 0-64.178 147.78c-2.636 10.87-5.643 22.19-6.774 33.32-1.598 15.7-.712 31.86-.689 47.65l-.266 71.93c-.088 21.62-2.553 73.56 1.354 91.91 2.75 12.91 11.084 20.71 21.793 27.47a424 424 0 0 0 16.566 39.02c63.915 132.32 175.105 218.78 312.186 266.5-13.073-.07-26.209-1.26-39.255-2.13a946.12 946.12 0 0 1-560.208-238.18c-185.294-167.41-297.508-400.84-312.523-650.11-14.195-249.276 71.392-493.952 237.871-680.027 185.498-205.154 399.921-303.921 676.2-318.054"/><path fill="#E0F3BA" d="m919.526 128.406 2.272.011c-5.67 4.057-28.804 11.602-37.053 14.946a1381 1381 0 0 0-67.132 28.817C526.96 306.369 294.931 564.339 204.943 872.788c-12.565 43.067-21.239 88.367-26.395 132.932-1.85 15.98-3.566 32.18-4.666 48.22-.614 8.96.854 29.96-1.796 37.16l-.606-2.15q-.605-3.495-1.157-6.99a793.5 793.5 0 0 1-8.877-133.543c2.106-169.355 56.294-323.567 155.857-460.199 138.795-190.471 370.551-323.42 602.223-359.812"/><path fill="#010101" d="M455.52 1383.4c33.269-4.72 72.911 4.4 100.198 23.99a145.9 145.9 0 0 1 59.513 95.82c6.305 39.65-3.241 76.71-26.541 109.02 5.553 6.84 15.631 14.03 17.804 22.76.88 3.53-.279 6.82-2.064 9.84-6.893 11.69-26.685 26.57-39.864 29.55-12.896 2.92-25.785-7.99-35.95-14.76l-12.364 4.76c-6.431 2.08-13.239 3.47-19.938 4.34-41.864 5.47-85.258-4.3-118.71-30.53-28.383-22.26-45.829-51.71-49.831-87.72a158.9 158.9 0 0 1 33.59-117.95c24.141-29.68 56.459-45.19 94.157-49.12"/><path fill="#063959" d="M453.597 1393.38c14.825-2.5 33.748-.94 48.516 1.75 34.936 6.35 62.805 26.06 82.7 55.28 25.643 37.67 30.76 92.19 10.559 133.22-3.616 7.35-15.17 22.38-15.947 29.18-.719 6.29 14.691 19.02 18.722 23.97l.886 1.1c-7.854 9.59-21.818 24.23-34.398 26.44-12.86 2.25-25.551-8.78-35.59-15.53l-7.877 3.18c-8.256 3.41-16.44 5.85-25.299 7.13-37.352 5.38-79.439-3.18-109.741-26.16-26.744-20.28-45.061-49.13-49.302-82.65a149.2 149.2 0 0 1 30.318-109.71c22.786-29.17 50.123-42.56 86.453-47.2"/><path fill="#010101" d="M460.904 1450.34c3.016-.48 6.181-.5 9.232-.6 17.146-.61 31.871 5.54 44.193 17.26 15.916 15.13 23.108 35.57 23.598 57.23.393 17.34-2.046 33.36-14.394 46.36-10.005-5.15-21.498-17.57-33.196-17-9.432.46-16.404 9.83-22.283 16.15 5.213 3.36 10.014 6.97 14.83 10.87 2.378 2.85 5.753 6.55 6.235 10.38.335 2.66-.739 5.68-2.247 7.85-2.374 3.4-6.18 4.9-10.173 5.47-13.189 1.86-29.222-4.84-39.794-12.4-18.027-12.89-28.754-33.24-32.159-54.89-3.231-20.56.417-44.51 13.006-61.51 10.655-14.38 25.531-22.68 43.152-25.17"/><path fill="#E0F3BA" d="M462.411 1459.21c4.702-.24 9.467-.58 14.165-.14 14.675 1.37 27.694 9.25 36.904 20.53 13.984 17.13 17.334 40.14 15.029 61.6-.635 5.91-1.567 12.1-6.42 16.04-3.924.29-14.06-7.95-18.446-10.12-4.303-2.13-8.805-3.18-13.452-4.22-2.152.54-4.261 1.16-6.321 2-8.335 3.37-20.441 11.4-23.756 19.93-1.408 3.62-.337 6.1 1.142 9.38 4.496 4.35 10.619 6.85 14.86 11.45 2.139 2.32 2.384 4.1 2.102 7.13-1.308 1.19-1.477 1.65-3.306 2-9.896 1.92-25.847-5.33-33.987-10.84-14.46-9.77-23.29-27.85-26.382-44.61-3.611-19.57-1.275-41.83 10.499-58.39 9.298-13.07 22.094-18.88 37.369-21.74"/><path fill="#010101" d="M926.846 523.86c68.477-6.258 129.134 44.016 135.684 112.466s-43.46 129.32-111.88 136.168c-68.84 6.891-130.163-43.495-136.757-112.363-6.593-68.869 44.056-129.975 112.953-136.271"/><path fill="#E0F3BA" d="M928.51 535.754c62.063-5.487 116.84 40.34 122.39 102.397 5.56 62.058-40.21 116.883-102.264 122.503-62.145 5.629-117.072-40.224-122.634-102.376s40.35-117.029 102.508-122.524"/><path fill="#010101" d="M505.76 994.973c64.255-7.902 122.764 37.747 130.734 101.987 7.97 64.25-37.614 122.81-101.852 130.84-64.334 8.05-122.997-37.61-130.979-101.96-7.981-64.34 37.746-122.95 102.097-130.867"/><path fill="#E0F3BA" d="M505.586 1007.18c57.64-8.05 110.876 32.2 118.839 89.85 7.963 57.66-32.37 110.83-90.036 118.7-57.539 7.86-110.57-32.37-118.516-89.89-7.945-57.53 32.198-110.62 89.713-118.66"/><path fill="#010101" d="M1217.74 330.779c39.44-6.159 76.4 20.88 82.47 60.343s-21.06 76.356-60.53 82.335c-39.35 5.96-76.1-21.057-82.15-60.393s20.88-76.146 60.21-82.285"/><path fill="#7A8BAE" d="M1223.3 342.47c32.9-3.13 62.1 21.009 65.21 53.906s-21.04 62.083-53.94 65.177c-32.87 3.092-62.03-21.041-65.14-53.912s21.01-62.043 53.87-65.171"/><path fill="#7A8BAE" d="M1301.2 122.185c37.85 10.904 74.75 27.831 110.41 44.467a960.57 960.57 0 0 1 439.3 406.04c120.95 216.427 151.22 471.958 84.17 710.658-71.23 246.16-237.36 453.92-461.82 577.56-72.57 39.92-158.85 70.16-238.57 91.54-18.76 5.03-39.18 11.52-58.61 12.75-47.77 3.01-98.98-7.94-144.58-21.22-121.693-35.43-234.781-114.32-296.5-226.91-10.315-18.82-17.528-38.46-26.854-57.62 12.17-11.78 15.994-24.43 16.281-41.08.257-14.9-.365-29.81-.176-44.71l52.815-.07c12.052 0 25.347 1.03 37.16-1.49 7.577-1.61 14.737-5.12 20.279-10.59 7.387-7.29 11.12-16.89 10.861-27.25a35.82 35.82 0 0 0-11.443-25.66c-10.446-9.83-23.464-11.75-37.199-11.85-23.693 1.67-48.661.1-72.478.05l-.018-27.78 85.489.29c13.988-.36 27.551-1.36 37.816-12.19 7.796-8.23 12.265-20.11 11.619-31.45-.577-10.14-6.046-20.89-13.828-27.4-5.771-4.83-12.46-6.94-19.756-8.23-14.138-2.48-30.086-1.18-44.492-1.2l-85.41.18c28.967-111.09 106.735-200.61 204.795-257.95 38.391-22.45 84.763-42.15 127.999-52.26 42.26-9.88 85.41-14.83 127.54-25.75 143.71-37.27 266.65-115.151 340.84-246.303a479.6 479.6 0 0 0 48.09-116.683c33.7-127.691 20.62-264.497-46.49-379.362-33.28-56.951-82.35-111.397-135.76-150.162-19.58-14.208-40.62-26.176-61.48-38.365"/><path fill="#6E83AC" d="m724.228 1469.02 85.489.29c-3.744 2.58-29.482 1.15-35.534 1.1l-.128 25.29c4.392-.04 19.875-1.42 22.669 1.05-23.693 1.67-48.661.1-72.478.05z"/><path fill="#010101" d="M1639.12 1369.17c2.35-.19 4.7-.28 7.05-.26 12.42.16 24.72 5.82 33.21 14.85 5.85 6.22 8.76 12.33 10.18 20.61 3.67 21.38 1.49 54.74 1.51 77.27.05 45.01.72 90.08.16 135.09-.23 18.4-2.13 32.63-16.44 46.03-9.7 9.08-21.23 13.2-34.4 12.36-14.36-.92-23.79-7.71-33.1-17.96-10.04 7.57-19.51 13.02-31.9 15.82-26.11 5.9-54.96 1.21-77.46-13.36-27.7-17.93-41.2-45.66-47.79-77.06-1.7 9.9-4.4 19.44-8.43 28.66-11.74 26.86-33.08 46.51-60.36 57.03-33.63 12.97-73.88 10.98-106.64-3.56-25.13-11.8-45.61-32.26-55.85-58.25-11.02-27.99-10.78-61.73 1.24-89.34a112.82 112.82 0 0 1 62.77-60.49c32.86-12.54 72.59-11.02 104.54 3.67a110.17 110.17 0 0 1 54.62 56.87c3.5 8.29 5.66 16.95 8.8 25.35 3.71-19.79 9.55-37.09 22.18-53.09 16.32-20.7 39.5-35.58 65.93-38.67 23.49-2.75 43.89 2.97 62.38 17.61-.16-21.21-4.31-62.26 7.01-80.23 7.15-11.34 18.25-16.11 30.79-18.95"/><path fill="#FFF" d="M1639.65 1380.26c6.82-.62 14.21.33 20.53 3.02 7.26 3.1 15.02 10.03 17.62 17.66 1.9 5.58 2.43 12.58 2.73 18.45 2.04 38.97.33 80.54.32 119.71l-.03 55.7c0 11.57.52 23.51-.59 35.03-.52 5.44-2.07 10.35-4.75 15.13-5.26 9.41-13.67 16.45-24.17 19.18-14.23 3.7-25.83-2.49-34.65-13.41-2.5-3.09-4.85-7.21-8.3-9.19-5.29 2.3-8.44 6.9-12.8 10.51-3.76 3.12-8.96 5.43-13.48 7.28-22.79 9.33-46.56 5.73-68.62-3.55-12.29-6.25-22.23-14.7-30.79-25.52-18.69-23.61-25.24-53.26-21.58-82.91 3.35-27.13 16.42-52.26 38.25-69.02 25.5-19.58 61.92-23.98 89.6-6.3 5.67 3.62 12.49 11.91 18.76 12.76 8.05-5.07-1.33-71.79 8.58-88.99 5.27-9.13 13.62-12.98 23.37-15.54"/><path fill="#010101" d="M1562.14 1518.25c8.22-.52 15.63-.64 23.33 2.87 10.76 4.9 18.47 14.96 22.41 25.91 4.32 12.02 4.04 24.97-1.49 36.54-6 12.56-15.57 20.25-28.41 24.84-11.11 1.48-21.42 1.69-31.25-4.61-9.42-6.03-15.15-15.97-17.55-26.72-3.12-13.95-1.12-30.7 6.96-42.63 6.44-9.52 14.96-14.04 26-16.2"/><path fill="#7A8BAE" d="M1560.03 1529.24c4.6-.48 9.51-1.12 14.09-.3 8.45 1.53 15.69 6.79 20.3 13.95 5.4 8.4 7.37 18.93 4.85 28.63-3.05 11.72-10.95 19.77-21.2 25.53-6.5 2.26-13.73 3.01-20.33.72-6.72-2.32-11.72-7.42-14.79-13.74-5.05-10.37-5.44-24.08-1.68-34.91 3.46-9.96 9.39-15.52 18.76-19.88"/><path fill="#FFF" d="M1323.88 1455.97c59.01-4.03 110.13 40.49 114.24 99.5 4.11 59-40.36 110.18-99.36 114.36-59.09 4.18-110.38-40.37-114.49-99.48-4.12-59.1 40.5-110.33 99.61-114.38"/><path fill="#010101" d="M1324.92 1513.27c9.51-.9 18.43.34 26.76 5.3 11.03 6.57 18.14 17.67 20.99 30.04 3.52 15.27 1.66 33.06-7.03 46.33-7.06 10.78-16.65 15.41-28.82 17.99-10.38.22-19.13-.62-28.2-6.35-10.58-6.69-16.88-17.96-19.57-29.95-3.33-14.87-1.68-31.99 6.86-44.85 7.17-10.8 16.72-15.8 29.01-18.51"/><path fill="#7A8BAE" d="M1325.58 1523.2c6.02-.43 12.1.33 17.58 2.92 8.81 4.15 14.96 12.11 17.93 21.26 3.91 12.02 3.23 27.26-2.99 38.4-5.13 9.2-12.2 13.51-22.08 16.28-6.5.41-12.69-.07-18.61-2.99-8.15-4.04-13.7-11.39-16.56-19.91-4.11-12.25-3.45-27.86 2.8-39.27 5.09-9.3 12.06-13.72 21.93-16.69"/><path fill="#010101" d="M1192.18 1171.54c77.88-8.98 148.22 47.04 156.92 124.95 8.69 77.91-47.58 148.05-125.52 156.46-77.54 8.37-147.25-47.55-155.9-125.06-8.64-77.51 47.02-147.42 124.5-156.35"/><path fill="#FFF" d="M1197.65 1182.8c71.42-5.78 134.01 47.44 139.78 118.87 5.76 71.42-47.47 134-118.9 139.75-71.41 5.75-133.96-47.46-139.73-118.87-5.76-71.4 47.44-133.97 118.85-139.75"/><path fill="#010101" d="M1723.31 762.489c75.33-4.363 139.9 53.25 144.12 128.593s-53.52 139.798-128.87 143.868c-75.15 4.06-139.39-53.486-143.59-128.621-4.21-75.134 53.21-139.488 128.34-143.84"/><path fill="#E0F3BA" d="M1722.68 774.649c68.49-4.751 127.85 46.974 132.51 115.476s-47.15 127.785-115.65 132.355c-68.38 4.57-127.54-47.12-132.19-115.494s46.96-127.595 115.33-132.337"/><path fill="#010101" d="M1069.65 1444.62c64.98-8.15 124.18 38.11 132 103.12s-38.72 123.99-103.77 131.49c-64.6 7.44-123.071-38.71-130.839-103.26-7.767-64.56 38.089-123.27 102.609-131.35"/><path fill="#FFF" d="M1073.64 1459.41c26.88-2.85 57.43 3.88 79.29 20.1a99.13 99.13 0 0 1 39.23 64.67c4.15 28.52-2.01 56.6-19.36 79.79-19.13 25.56-44.54 36.35-75.32 40.96-31.29 1.11-58.78-2.7-83.92-22.89-22.248-17.86-35.427-42.13-38.238-70.54-2.602-26.29 4.221-53.44 21.148-74.02 19.89-24.18 46.64-35.07 77.17-38.07"/><path fill="#010101" d="M1079.25 1512.27c8.83-.31 17.72.82 25.51 5.21 10.32 5.82 17.3 16.23 20.37 27.52 4.3 15.81 2.08 34.88-6.55 48.88-6.66 10.8-15.59 16.2-27.62 19.07-10.42.52-19.48-.18-28.39-6.15-10.95-7.33-17.39-19.67-19.72-32.4-2.8-15.28-.82-33.08 8.34-45.94 7.02-9.86 16.46-14.3 28.06-16.19"/><path fill="#7A8BAE" d="M1076.24 1523.21c5.66-.43 11-.46 16.48 1.22 7.9 2.41 14.14 7.76 17.99 15.03 6.23 11.74 6.71 27.22 2.44 39.7-3.71 10.86-10.05 17.47-20.22 22.32-6.15 1.11-12.63.93-18.51-1.29-8.61-3.25-14.88-10.2-18.38-18.6-4.98-11.95-5.08-27.72.09-39.63 4.18-9.64 10.53-14.91 20.11-18.75"/><path fill="#010101" d="M903.652 1368.31c8.299-.49 15.834.75 23.396 4.27 10.851 5.06 21.504 15.51 25.168 27.12 4.43 14.03 3.495 208.15 1.757 232.68-.489 6.9-1.217 12.9-4.663 19.06-7.175 12.83-18.55 18.82-32.22 22.56-12.666 1.65-24.357-.67-34.888-8.18-10.254-7.32-15.997-16.84-17.965-29.15-2.506-15.67-1.251-32.49-1.157-48.35l.152-71.23-.165-69.5c-.072-13.49-1.023-27.67.487-41.06.922-8.17 2.368-13.88 7.463-20.58 8.101-10.65 19.732-15.8 32.635-17.64"/><path fill="#FFF" d="M900.525 1379.19c6.844-.61 12.954-.41 19.508 1.91 9.233 3.27 17.18 11.03 21.007 20.05 2.102 4.96 2.247 12.57 2.493 17.96 1.504 32.97-.003 66.59.01 99.62.014 36.08 1.494 72.68-.082 108.69-.226 5.16-.297 11.11-2.281 15.92-4.173 10.11-13.477 15.21-23.179 18.84-11.253 1.64-22.067.09-31.247-7.09-5.484-4.29-11.074-11.06-11.884-18.15-3.022-26.5-1.08-63.54-1.095-91.1-.023-42.99-1.447-86.53.25-129.46.224-5.67.213-13.67 2.542-18.86 4.431-9.88 14.415-14.75 23.958-18.33m-228.136 21.16c27.04-1.19 54.478-.01 81.572-.08 22.62-.07 47.599-2.3 69.969 1 5.503.81 10.385 2.49 14.616 6.22 5.446 4.79 9.634 13.16 9.719 20.46.098 8.44-4.17 16.86-10.212 22.6-3.851 3.66-8.314 5.89-13.519 6.89-13.502 2.58-28.515 1.05-42.238.97l-68.011-.27c-.343 16.66-.21 33.35-.302 50.01 19.632-1.31 84.638-3.55 101.173 2.01 7.146 2.4 13.877 7.12 17.111 14.11 3.798 8.22 1.608 16.07-1.369 24.06-1.416 2.27-2.938 4.25-4.9 6.09-4.47 4.19-11.014 6.33-16.935 7.4-18.227 3.26-73.972 1.07-94.985.42-.169 19.93 4.388 63.36-5.751 79.5-5.259 8.37-14.958 15.62-24.74 17.52-8.538 1.66-17.598.06-24.83-4.85-5.867-3.98-11.638-11.17-12.892-18.32-1.839-10.47-.997-22.12-.995-32.74l.057-54.52.124-75.57c.033-15.12-.647-30.66.93-45.71.604-5.76 1.88-10.47 5.326-15.25 5.253-7.29 12.511-10.42 21.082-11.95"/></svg>